<svg xmlns="http://www.w3.org/2000/svg" xmlns:xlink="http://www.w3.org/1999/xlink" width="500" zoomAndPan="magnify" viewBox="0 0 375 374.999991" height="500" preserveAspectRatio="xMidYMid meet" version="1.0"><defs><filter x="0%" y="0%" width="100%" height="100%" id="0c2a958553"><feColorMatrix values="0 0 0 0 1 0 0 0 0 1 0 0 0 0 1 0 0 0 1 0" color-interpolation-filters="sRGB"/></filter><g/><clipPath id="d97414551f"><path d="M 88 154.738281 L 99 154.738281 L 99 219.988281 L 88 219.988281 Z M 88 154.738281 " clip-rule="nonzero"/></clipPath><clipPath id="07420c15b6"><path d="M 102 154.738281 L 117 154.738281 L 117 219.988281 L 102 219.988281 Z M 102 154.738281 " clip-rule="nonzero"/></clipPath><mask id="52478f2ea0"><g filter="url(#0c2a958553)"><rect x="-37.5" width="450" fill="#000000" y="-37.499999" height="449.999989" fill-opacity="0.3"/></g></mask><clipPath id="28f9728ef1"><path d="M 0.28125 0.761719 L 0.761719 0.761719 L 0.761719 1.480469 L 0.28125 1.480469 Z M 0.28125 0.761719 " clip-rule="nonzero"/></clipPath><clipPath id="6fea59beaf"><rect x="0" width="1" y="0" height="2"/></clipPath><mask id="ecc8fa2404"><g filter="url(#0c2a958553)"><rect x="-37.5" width="450" fill="#000000" y="-37.499999" height="449.999989" fill-opacity="0.3"/></g></mask><clipPath id="ff37cc4773"><path d="M 0.71875 0.71875 L 6 0.71875 L 6 14.878906 L 0.71875 14.878906 Z M 0.71875 0.71875 " clip-rule="nonzero"/></clipPath><clipPath id="b0f984bdc8"><rect x="0" width="6" y="0" height="15"/></clipPath><mask id="cfc54c4ecc"><g filter="url(#0c2a958553)"><rect x="-37.5" width="450" fill="#000000" y="-37.499999" height="449.999989" fill-opacity="0.3"/></g></mask><clipPath id="88e8534845"><path d="M 0.28125 0.71875 L 5.558594 0.71875 L 5.558594 14.878906 L 0.28125 14.878906 Z M 0.28125 0.71875 " clip-rule="nonzero"/></clipPath><clipPath id="da7c615cb5"><rect x="0" width="6" y="0" height="15"/></clipPath><clipPath id="8584f41d76"><path d="M 68.851562 187.5 L 118.351562 187.5 L 118.351562 204.75 L 68.851562 204.75 Z M 68.851562 187.5 " clip-rule="nonzero"/></clipPath><clipPath id="ec53290d4a"><path d="M 111 189 L 118.351562 189 L 118.351562 193 L 111 193 Z M 111 189 " clip-rule="nonzero"/></clipPath><clipPath id="aceee13a5b"><path d="M 68.851562 198 L 77 198 L 77 202 L 68.851562 202 Z M 68.851562 198 " clip-rule="nonzero"/></clipPath></defs><g clip-path="url(#d97414551f)"><path fill="#d9d9d9" d="M 91.980469 181.851562 C 91.980469 185.179688 88.785156 208.339844 90.59375 216.75 C 91.351562 220.265625 95.300781 219.808594 95.957031 216.75 C 97.628906 208.992188 94.636719 201.847656 94.636719 181.667969 C 94.636719 178.90625 96.769531 178.835938 97.921875 175.269531 C 98.953125 172.089844 97.5 154.949219 97.03125 154.949219 C 96.496094 154.949219 96.757812 169.792969 95.742188 169.792969 C 94.722656 169.792969 95.238281 155.148438 94.59375 154.949219 C 93.945312 154.746094 94.417969 169.792969 93.222656 169.792969 C 92.015625 169.792969 92.800781 154.949219 92.152344 154.949219 C 91.507812 154.949219 91.6875 169.792969 90.703125 169.792969 C 89.617188 169.792969 90.199219 154.949219 89.714844 154.949219 C 88.890625 154.949219 87.925781 171.066406 88.4375 174.472656 C 88.953125 177.878906 91.980469 178.523438 91.980469 181.851562 Z M 91.980469 181.851562 " fill-opacity="1" fill-rule="nonzero"/></g><g clip-path="url(#07420c15b6)"><path fill="#d9d9d9" d="M 108.378906 181.136719 C 108.378906 201.402344 105.125 209.640625 106.996094 216.792969 C 107.886719 220.203125 111.699219 219.800781 112.359375 216.792969 C 113.871094 209.863281 111.039062 200.992188 111.039062 181.136719 C 111.039062 178.828125 116.8125 179.222656 116.8125 171.324219 C 116.8125 161.4375 113.136719 154.894531 109.636719 154.894531 C 106.367188 154.894531 102.816406 162.070312 102.816406 171.324219 C 102.816406 178.742188 108.378906 179.234375 108.378906 181.136719 Z M 108.378906 181.136719 " fill-opacity="1" fill-rule="nonzero"/></g><path fill="#d9d9d9" d="M 77.695312 189.261719 C 77.695312 205.351562 74.4375 210.984375 76.308594 216.667969 C 77.199219 219.375 81.015625 219.054688 81.671875 216.667969 C 83.1875 211.164062 80.351562 207.125 80.351562 189.476562 C 80.351562 187.320312 83.527344 184.308594 83.527344 178.746094 C 83.527344 168.855469 82.085938 155.414062 78.949219 155.414062 C 75.941406 155.414062 76.628906 172.742188 76.628906 182.222656 C 76.628906 186.292969 77.695312 187.351562 77.695312 189.261719 Z M 77.695312 189.261719 " fill-opacity="1" fill-rule="nonzero"/><g mask="url(#52478f2ea0)"><g transform="matrix(1, 0, 0, 1, 89, 167)"><g clip-path="url(#6fea59beaf)"><g clip-path="url(#28f9728ef1)"><path fill="#d9d9d9" d="M 0.515625 1.203125 C 0.507812 1.308594 0.460938 1.382812 0.40625 1.371094 C 0.351562 1.355469 0.3125 1.261719 0.320312 1.15625 C 0.328125 1.054688 0.375 0.980469 0.429688 0.992188 C 0.484375 1.003906 0.523438 1.101562 0.515625 1.203125 Z M 0.515625 1.203125 " fill-opacity="0.777" fill-rule="nonzero"/></g></g></g></g><g mask="url(#ecc8fa2404)"><g transform="matrix(1, 0, 0, 1, 90, 204)"><g clip-path="url(#b0f984bdc8)"><g clip-path="url(#ff37cc4773)"><path fill="#d9d9d9" d="M 0.960938 12.640625 C 1.285156 14.097656 2.65625 15.121094 4.070312 14.457031 C 5.640625 13.722656 5.867188 11.289062 5.878906 9.972656 C 5.898438 7.632812 5.652344 5.902344 5.371094 3.613281 C 5.28125 2.902344 5.140625 1.578125 4.996094 0.925781 C 4.992188 2.769531 5.28125 4.558594 4.9375 6.394531 C 4.425781 8.117188 4.992188 11.269531 3.34375 12.425781 C 2.523438 12.996094 1.054688 11.863281 0.960938 12.640625 Z M 0.960938 12.640625 " fill-opacity="1" fill-rule="nonzero"/></g></g></g></g><g mask="url(#cfc54c4ecc)"><g transform="matrix(1, 0, 0, 1, 107, 204)"><g clip-path="url(#da7c615cb5)"><g clip-path="url(#88e8534845)"><path fill="#d9d9d9" d="M 0.46875 12.640625 C 0.792969 14.097656 2.164062 15.121094 3.578125 14.457031 C 5.148438 13.722656 5.375 11.289062 5.386719 9.972656 C 5.402344 7.632812 5.160156 5.902344 4.878906 3.613281 C 4.789062 2.902344 4.648438 1.578125 4.503906 0.925781 C 4.5 2.769531 4.789062 4.558594 4.441406 6.394531 C 3.929688 8.117188 4.5 11.269531 2.851562 12.425781 C 2.03125 12.996094 0.558594 11.863281 0.46875 12.640625 Z M 0.46875 12.640625 " fill-opacity="1" fill-rule="nonzero"/></g></g></g></g><g clip-path="url(#8584f41d76)"><path fill="#ebb22f" d="M 78.398438 187.523438 C 76.90625 187.523438 75.40625 187.613281 73.9375 187.785156 C 73.828125 187.8125 73.621094 187.851562 73.378906 187.890625 C 71.894531 188.148438 69.195312 188.617188 69.007812 190.519531 C 68.933594 193.933594 68.894531 195.84375 68.859375 199.101562 C 68.890625 199.085938 68.921875 199.070312 68.953125 199.054688 C 69.011719 199.023438 69.046875 199.007812 69.078125 198.992188 C 70.613281 198.300781 73.582031 198.15625 75.800781 198.15625 C 76.234375 198.15625 76.496094 198.160156 76.496094 198.160156 L 76.910156 198.171875 L 76.910156 198.175781 C 83.308594 198.285156 88.375 199.878906 93.277344 201.421875 C 98.308594 203.003906 103.511719 204.640625 110.101562 204.640625 C 110.988281 204.640625 111.890625 204.609375 112.789062 204.550781 C 114.8125 204.3125 117.757812 203.402344 117.929688 202.140625 L 117.957031 198.890625 C 117.976562 196.9375 117.996094 194.929688 118.03125 192.808594 C 117.132812 193.226562 115.515625 193.4375 113.203125 193.4375 C 112.027344 193.4375 111.050781 193.382812 110.777344 193.363281 L 110.382812 193.335938 L 110.382812 193.277344 C 105.011719 192.976562 100.113281 191.671875 95.375 190.414062 C 90.023438 188.992188 84.492188 187.523438 78.398438 187.523438 " fill-opacity="1" fill-rule="nonzero"/></g><path fill="#ebb22f" d="M 114.628906 189.773438 L 114.59375 188.101562 C 114.269531 188.085938 113.960938 188.074219 113.675781 188.074219 C 111.773438 188.074219 111.234375 188.511719 111.195312 188.628906 C 111.191406 188.667969 111.195312 188.71875 111.199219 188.773438 C 111.214844 188.882812 111.519531 189.316406 114.628906 189.773438 " fill-opacity="1" fill-rule="nonzero"/><path fill="#ebb22f" d="M 72.652344 202.011719 L 72.625 203.574219 C 75.011719 203.558594 75.691406 203.113281 75.875 202.917969 C 75.90625 202.882812 75.921875 202.855469 75.929688 202.839844 C 75.929688 202.816406 75.925781 202.796875 75.917969 202.769531 C 75.859375 202.632812 75.472656 202.253906 72.652344 202.011719 " fill-opacity="1" fill-rule="nonzero"/><g clip-path="url(#ec53290d4a)"><path fill="#ebb22f" d="M 113.203125 192.609375 C 116.476562 192.609375 117.859375 192.171875 118.066406 191.765625 C 117.976562 191.636719 117.570312 191.101562 115.234375 190.707031 C 115.105469 190.683594 114.964844 190.660156 114.820312 190.640625 L 114.703125 190.621094 C 113.363281 190.429688 112.386719 190.230469 111.714844 190.015625 C 111.515625 189.949219 111.34375 189.882812 111.191406 189.8125 L 111.207031 192.558594 C 111.613281 192.578125 112.355469 192.609375 113.203125 192.609375 " fill-opacity="1" fill-rule="nonzero"/></g><g clip-path="url(#aceee13a5b)"><path fill="#ebb22f" d="M 71.222656 199.316406 C 70.207031 199.488281 69.058594 199.679688 68.863281 200.230469 L 68.875 200.25 C 68.945312 200.359375 69.425781 200.902344 72.058594 201.128906 L 72.289062 201.148438 C 74.148438 201.289062 75.316406 201.484375 75.972656 201.777344 L 76.058594 198.996094 C 74.574219 199.003906 73.078125 199.089844 71.574219 199.253906 L 71.222656 199.316406 " fill-opacity="1" fill-rule="nonzero"/></g><g fill="#f8db9a" fill-opacity="1"><g transform="translate(127.158405, 203.64321)"><g><path d="M 3.820312 -30.226562 C 3.820312 -29.730469 3.972656 -29.582031 4.367188 -29.582031 C 4.714844 -29.582031 4.914062 -30.179688 5.855469 -30.921875 C 6.898438 -31.765625 9.679688 -33.75 11.613281 -33.75 C 12.109375 -33.75 12.558594 -33.601562 12.90625 -33.253906 C 14.59375 -31.566406 11.566406 -24.46875 11.070312 -23.328125 L 9.53125 -19.65625 C 9.183594 -18.960938 8.488281 -17.519531 8.835938 -16.726562 C 8.984375 -16.28125 9.28125 -16.132812 9.628906 -16.132812 C 10.226562 -16.132812 10.96875 -16.628906 11.367188 -16.777344 C 12.359375 -17.171875 13.253906 -17.371094 13.996094 -17.371094 C 16.03125 -17.371094 16.875 -15.933594 15.933594 -13.152344 C 15.535156 -11.960938 14.792969 -10.871094 14.046875 -9.828125 C 11.863281 -7.097656 8.585938 -4.617188 5.808594 -2.53125 L 2.679688 -0.398438 C 1.835938 0.0976562 0.695312 -0.445312 0.941406 0.496094 C 1.042969 0.894531 1.339844 1.042969 1.738281 1.042969 C 4.417969 1.042969 13.796875 -6.601562 15.636719 -8.933594 C 19.257812 -13.402344 18.464844 -18.8125 14.195312 -18.8125 C 13.847656 -18.8125 13.449219 -18.761719 13.003906 -18.664062 C 12.0625 -18.464844 11.167969 -17.96875 10.671875 -17.917969 C 11.167969 -18.859375 11.714844 -19.707031 12.109375 -20.699219 C 13.351562 -23.726562 16.628906 -30.722656 14.292969 -34 C 13.699219 -34.792969 12.804688 -35.140625 11.8125 -35.140625 C 10.027344 -35.140625 7.992188 -34.148438 6.898438 -33.453125 C 6.15625 -32.957031 3.820312 -31.21875 3.820312 -30.226562 Z M 3.820312 -30.226562 "/></g></g></g><g fill="#f8db9a" fill-opacity="1"><g transform="translate(145.66999, 203.64321)"><g><path d="M 3.820312 -30.226562 C 3.820312 -29.730469 3.972656 -29.582031 4.367188 -29.582031 C 4.714844 -29.582031 4.914062 -30.179688 5.855469 -30.921875 C 6.898438 -31.765625 9.679688 -33.75 11.613281 -33.75 C 12.109375 -33.75 12.558594 -33.601562 12.90625 -33.253906 C 14.59375 -31.566406 11.566406 -24.46875 11.070312 -23.328125 L 9.53125 -19.65625 C 9.183594 -18.960938 8.488281 -17.519531 8.835938 -16.726562 C 8.984375 -16.28125 9.28125 -16.132812 9.628906 -16.132812 C 10.226562 -16.132812 10.96875 -16.628906 11.367188 -16.777344 C 12.359375 -17.171875 13.253906 -17.371094 13.996094 -17.371094 C 16.03125 -17.371094 16.875 -15.933594 15.933594 -13.152344 C 15.535156 -11.960938 14.792969 -10.871094 14.046875 -9.828125 C 11.863281 -7.097656 8.585938 -4.617188 5.808594 -2.53125 L 2.679688 -0.398438 C 1.835938 0.0976562 0.695312 -0.445312 0.941406 0.496094 C 1.042969 0.894531 1.339844 1.042969 1.738281 1.042969 C 4.417969 1.042969 13.796875 -6.601562 15.636719 -8.933594 C 19.257812 -13.402344 18.464844 -18.8125 14.195312 -18.8125 C 13.847656 -18.8125 13.449219 -18.761719 13.003906 -18.664062 C 12.0625 -18.464844 11.167969 -17.96875 10.671875 -17.917969 C 11.167969 -18.859375 11.714844 -19.707031 12.109375 -20.699219 C 13.351562 -23.726562 16.628906 -30.722656 14.292969 -34 C 13.699219 -34.792969 12.804688 -35.140625 11.8125 -35.140625 C 10.027344 -35.140625 7.992188 -34.148438 6.898438 -33.453125 C 6.15625 -32.957031 3.820312 -31.21875 3.820312 -30.226562 Z M 3.820312 -30.226562 "/></g></g></g><g fill="#f8db9a" fill-opacity="1"><g transform="translate(164.181574, 203.64321)"><g><path d="M 0.59375 8.191406 C 0.59375 6.203125 2.035156 3.972656 3.226562 2.53125 C 3.820312 1.835938 5.011719 0.347656 5.808594 -0.0976562 C 5.808594 1.289062 5.855469 2.382812 5.507812 3.523438 C 5.0625 5.160156 3.972656 7.542969 2.628906 8.539062 C 2.285156 8.835938 1.6875 9.230469 1.242188 9.230469 C 0.894531 9.230469 0.59375 8.933594 0.59375 8.191406 Z M 0.148438 -8.039062 C 0.148438 -5.410156 3.625 -4.566406 5.160156 -1.738281 C 4.417969 -0.546875 -0.992188 3.722656 -0.992188 8.191406 C -0.992188 9.976562 0 10.917969 1.390625 10.917969 C 2.878906 10.917969 4.765625 9.777344 6.203125 7.347656 C 9.53125 1.6875 7.496094 -1.191406 7.695312 -1.886719 C 7.792969 -2.285156 11.316406 -4.914062 11.863281 -5.210938 L 15.238281 -7.542969 C 16.378906 -8.191406 16.480469 -9.035156 15.683594 -9.035156 C 15.238281 -9.035156 14.59375 -8.835938 13.75 -8.238281 L 9.132812 -5.011719 C 8.386719 -4.367188 7.695312 -3.820312 6.898438 -3.277344 C 4.316406 -7.148438 0.59375 -7 3.226562 -9.976562 C 3.972656 -10.820312 3.820312 -10.570312 5.011719 -10.871094 C 5.3125 -12.109375 4.863281 -12.605469 4.167969 -12.605469 C 2.730469 -12.605469 0.148438 -10.570312 0.148438 -8.039062 Z M 0.148438 -8.039062 "/></g></g></g><g fill="#ebb22f" fill-opacity="1"><g transform="translate(178.533402, 203.64321)"><g/></g></g><g fill="#f8db9a" fill-opacity="1"><g transform="translate(184.535704, 195.814557)"><g><path d="M 12.292969 5.574219 L 12.292969 9.476562 L 11.582031 9.476562 C 10.25 9.476562 8.050781 8.792969 8.824219 7.433594 C 9.226562 6.628906 11.148438 5.820312 12.292969 5.574219 Z M 13.625 9.289062 L 13.71875 6.472656 C 13.8125 5.449219 13.378906 5.296875 14.367188 5.140625 C 15.761719 4.925781 16.878906 4.800781 17.992188 4.800781 C 18.828125 4.800781 19.695312 4.863281 20.71875 5.015625 C 21.304688 5.109375 22.078125 5.328125 22.667969 5.328125 C 21.988281 6.285156 15.667969 9.289062 13.625 9.289062 Z M 23.9375 4.519531 C 23.410156 4.519531 23.101562 4.429688 22.667969 4.335938 C 20.839844 4.027344 19.324219 3.839844 17.683594 3.839844 C 16.753906 3.839844 15.792969 3.902344 14.710938 4.058594 C 14.308594 4.117188 14.058594 4.179688 13.90625 4.179688 C 13.441406 4.179688 13.964844 3.5625 13.933594 0.1875 L 14.367188 -6.285156 C 14.648438 -8.332031 14.773438 -10.21875 15.144531 -12.480469 C 15.546875 -15.050781 15.949219 -16.910156 16.414062 -19.386719 C 16.628906 -20.53125 16.722656 -20.40625 18.671875 -21.273438 L 21.769531 -22.359375 C 23.441406 -22.855469 25.332031 -23.226562 27.21875 -23.226562 C 28.582031 -23.226562 29.976562 -23.039062 31.246094 -22.480469 C 37.75 -19.789062 36.046875 -10.621094 33.226562 -5.730469 C 32.546875 -4.582031 31.742188 -3.25 30.90625 -2.167969 C 30.71875 -1.949219 30.625 -1.859375 30.472656 -1.640625 C 29.945312 -0.960938 27.839844 1.394531 27.21875 1.890625 C 26.972656 2.074219 26.910156 2.105469 26.664062 2.324219 L 25.113281 3.652344 C 24.992188 3.746094 23.9375 4.519531 23.9375 4.519531 Z M 17.03125 -21.894531 C 17.03125 -22.421875 16.9375 -22.328125 16.535156 -22.542969 C 15.792969 -22.359375 15.761719 -21.769531 15.484375 -21.183594 C 15.328125 -20.75 14.710938 -20.5 14.089844 -20.160156 C 12.324219 -19.074219 10.714844 -17.773438 9.167969 -16.414062 C 6.628906 -13.875 4.984375 -12.171875 2.941406 -9.105469 C 1.515625 -7 -0.621094 -3.003906 -0.621094 -0.1875 C -0.621094 1.488281 0.496094 2.136719 1.175781 2.136719 C 1.515625 2.136719 1.734375 1.980469 1.671875 1.703125 C 1.515625 0.992188 0.339844 1.828125 0.339844 -0.1875 C 0.339844 -3.871094 4.398438 -9.691406 6.9375 -12.605469 L 8.980469 -14.773438 C 10.25 -16.042969 13.5625 -18.613281 14.988281 -19.324219 L 13.875 -13.875 C 13.5 -11.582031 12.664062 -4.335938 12.695312 -1.890625 C 12.695312 -0.898438 12.480469 0.277344 12.480469 1.269531 C 12.480469 2.355469 12.386719 3.28125 12.386719 4.429688 C 11.179688 5.046875 7.648438 5.417969 7.648438 8.113281 C 7.648438 9.722656 9.941406 10.558594 11.335938 10.558594 C 11.613281 10.558594 11.796875 10.527344 11.953125 10.527344 C 12.203125 10.527344 12.261719 10.683594 12.355469 11.457031 C 12.386719 11.953125 12.386719 12.230469 12.511719 12.664062 C 12.695312 13.191406 12.976562 13.378906 13.222656 13.378906 C 13.5 13.378906 13.75 13.160156 13.71875 12.945312 L 13.59375 10.46875 C 14.398438 10.4375 16.042969 9.972656 16.691406 9.722656 C 18.671875 9.105469 21.429688 7.710938 23.164062 6.566406 C 23.84375 6.101562 24.09375 5.820312 24.527344 5.820312 C 24.804688 5.820312 25.113281 5.945312 25.671875 6.222656 C 26.261719 6.535156 26.136719 6.78125 26.570312 7.0625 C 27.5625 6.378906 26.445312 5.355469 25.484375 5.140625 C 25.609375 4.738281 25.949219 4.550781 26.476562 4.179688 C 26.847656 3.871094 27.191406 3.59375 27.5625 3.28125 C 28.027344 2.910156 29.542969 1.425781 30.007812 0.835938 L 30.9375 -0.1875 C 33.722656 -3.46875 35.675781 -6.8125 36.695312 -11.179688 C 37.53125 -14.832031 37.253906 -19.046875 34.46875 -21.832031 C 32.546875 -23.78125 29.882812 -24.496094 27.191406 -24.496094 C 25.332031 -24.496094 23.472656 -24.15625 21.769531 -23.660156 L 18.238281 -22.328125 C 17.835938 -22.171875 17.496094 -21.894531 17.03125 -21.894531 Z M 17.03125 -21.894531 "/></g></g></g><g fill="#f8db9a" fill-opacity="1"><g transform="translate(220.667092, 195.814557)"><g><path d="M 1.425781 -5.605469 C 1.640625 -6.378906 2.664062 -7.585938 3.5 -7.742188 C 3.40625 -6.75 2.199219 -6.007812 1.425781 -5.605469 Z M 0.03125 -4.863281 C 0.03125 -3.996094 0 -3.21875 0.742188 -2.476562 C 1.269531 -1.949219 1.890625 -1.734375 2.539062 -1.734375 C 4.429688 -1.734375 6.566406 -3.625 7.710938 -4.769531 C 7.988281 -5.109375 7.988281 -5.140625 7.898438 -5.605469 C 6.96875 -5.605469 7.464844 -5.480469 6.195312 -4.492188 C 5.976562 -4.335938 5.882812 -4.210938 5.636719 -4.027344 C 5.015625 -3.5625 3.714844 -2.664062 2.632812 -2.664062 C 2.261719 -2.664062 1.890625 -2.785156 1.609375 -3.066406 C 1.082031 -3.59375 1.144531 -4.085938 1.144531 -4.738281 C 2.105469 -4.800781 3.21875 -5.699219 3.714844 -6.253906 C 4.675781 -7.464844 4.675781 -8.703125 3.3125 -8.703125 C 1.828125 -8.703125 0.03125 -6.410156 0.03125 -4.863281 Z M 0.03125 -4.863281 "/></g></g></g><g fill="#f8db9a" fill-opacity="1"><g transform="translate(227.385608, 195.814557)"><g><path d="M 0.0625 -2.382812 C 0.0625 -0.371094 0.125 3.4375 1.796875 3.4375 C 2.570312 3.4375 3.160156 2.261719 3.5 1.734375 C 4.179688 0.589844 5.015625 -1.578125 5.667969 -2.910156 C 5.820312 -3.21875 6.78125 -5.015625 6.78125 -5.203125 C 6.78125 -5.355469 6.65625 -5.542969 6.503906 -5.542969 C 6.347656 -5.542969 6.164062 -5.417969 5.976562 -5.046875 C 4.984375 -3.28125 4.085938 -1.113281 3.160156 0.679688 C 2.816406 1.394531 2.382812 2.230469 1.703125 2.601562 C 0.308594 -0.0625 2.042969 -9.691406 2.910156 -12.820312 C 3.003906 -13.128906 3.808594 -14.925781 2.785156 -14.925781 C 1.980469 -14.925781 1.703125 -13.378906 1.425781 -12.480469 C 0.648438 -9.632812 0.0625 -5.449219 0.0625 -2.382812 Z M 0.0625 -2.382812 "/></g></g></g><g fill="#f8db9a" fill-opacity="1"><g transform="translate(232.834735, 195.814557)"><g><path d="M 2.570312 0.125 C 4.027344 0.125 5.203125 -1.238281 5.945312 -2.011719 C 6.441406 -2.507812 8.300781 -4.582031 8.300781 -5.171875 C 8.300781 -5.449219 8.207031 -5.542969 8.082031 -5.542969 C 7.492188 -5.542969 5.851562 -3.34375 5.730469 -3.191406 C 5.265625 -2.601562 3.652344 -0.960938 2.664062 -0.960938 C 1.828125 -0.960938 1.488281 -2.785156 1.488281 -3.714844 C 1.488281 -6.875 2.726562 -8.269531 1.300781 -8.269531 C 0.679688 -8.269531 0.371094 -6.875 0.277344 -6.222656 C -0.0625 -4.644531 0 -2.507812 0.742188 -1.113281 C 1.082031 -0.527344 1.734375 0.125 2.570312 0.125 Z M 1.578125 -12.171875 C 1.578125 -11.488281 1.980469 -11.179688 2.414062 -11.179688 C 3.035156 -11.179688 3.683594 -11.859375 3.097656 -13.007812 C 2.910156 -13.347656 2.695312 -13.472656 2.476562 -13.472656 C 2.011719 -13.472656 1.578125 -12.882812 1.578125 -12.171875 Z M 1.578125 -12.171875 "/></g></g></g><g fill="#f8db9a" fill-opacity="1"><g transform="translate(239.893828, 195.814557)"><g><path d="M 0 11.425781 C -2.476562 11.425781 -0.527344 6.9375 -0.1875 6.101562 C 0.308594 4.953125 1.734375 2.941406 2.414062 2.074219 C 2.632812 1.703125 3.808594 0.1875 4.210938 0.0625 L 4.085938 1.859375 C 3.777344 4.398438 3.625 7.246094 2.199219 9.660156 C 1.765625 10.375 0.804688 11.425781 0 11.425781 Z M -0.339844 -2.632812 C -0.339844 -2.136719 -0.433594 -1.207031 0.496094 -1.207031 C 1.269531 -1.207031 2.105469 -2.105469 2.539062 -2.539062 C 3.21875 -3.160156 3.871094 -4.304688 4.210938 -4.429688 C 4.210938 -3.160156 4.429688 -1.578125 3.902344 -1.023438 C 2.011719 0.992188 0.464844 2.972656 -0.773438 5.480469 C -1.640625 7.214844 -1.980469 8.113281 -1.980469 10.09375 C -1.980469 11.335938 -1.144531 12.292969 0 12.292969 C 1.082031 12.292969 2.445312 11.425781 3.652344 9.074219 C 4.613281 7.121094 5.480469 2.910156 5.449219 0.433594 C 5.449219 -0.125 5.480469 -0.621094 5.542969 -1.207031 C 5.605469 -1.734375 6.070312 -1.859375 6.410156 -2.136719 C 7.152344 -2.878906 9.722656 -4.675781 9.785156 -4.800781 C 9.910156 -5.046875 9.816406 -5.386719 9.570312 -5.386719 C 8.484375 -5.386719 6.101562 -2.878906 5.449219 -2.726562 C 5.449219 -3.808594 5.542969 -6.347656 4.613281 -6.347656 C 4.117188 -6.347656 3.808594 -5.667969 3.59375 -5.355469 C 3.21875 -4.832031 2.632812 -3.996094 2.230469 -3.5625 C 1.828125 -3.160156 1.238281 -2.324219 0.496094 -2.136719 C 0.496094 -3.683594 2.757812 -7.773438 4.550781 -7.773438 C 5.234375 -7.773438 5.015625 -6.8125 5.761719 -6.75 C 6.285156 -7.554688 5.730469 -8.609375 4.582031 -8.609375 C 2.382812 -8.609375 -0.339844 -4.644531 -0.339844 -2.632812 Z M -0.339844 -2.632812 "/></g></g></g><g fill="#f8db9a" fill-opacity="1"><g transform="translate(248.53192, 195.814557)"><g><path d="M -0.1875 -2.570312 C -0.1875 -1.640625 -0.09375 4.058594 1.023438 4.058594 C 1.609375 4.058594 1.796875 3.933594 2.011719 3.28125 C 2.382812 2.136719 2.632812 0.835938 3.128906 -0.464844 C 3.5 -1.394531 4.675781 -4.335938 5.265625 -4.769531 C 5.265625 -3.902344 5.296875 -2.507812 5.417969 -1.828125 C 5.636719 -0.558594 6.101562 0 6.75 0 C 8.207031 0 9.632812 -2.601562 10.25 -3.714844 C 10.558594 -4.335938 10.960938 -4.675781 10.777344 -5.417969 C 10.652344 -5.449219 10.527344 -5.480469 10.4375 -5.480469 C 10.1875 -5.480469 10.003906 -5.265625 9.632812 -4.613281 C 9.382812 -4.117188 9.136719 -3.683594 8.855469 -3.21875 C 8.332031 -2.476562 7.679688 -1.207031 6.75 -0.992188 C 6.347656 -1.765625 6.347656 -2.476562 6.347656 -3.652344 C 6.347656 -4.210938 6.347656 -6.101562 5.667969 -6.101562 C 4.738281 -6.101562 4.460938 -5.449219 3.996094 -4.613281 C 2.664062 -2.199219 2.382812 -1.269531 1.546875 1.207031 L 1.300781 1.796875 L 1.207031 -1.671875 C 1.207031 -4.769531 1.515625 -8.421875 1.980469 -11.273438 C 2.136719 -12.324219 2.601562 -13.78125 2.382812 -14.742188 C 2.167969 -14.773438 2.011719 -14.800781 1.890625 -14.800781 C 1.578125 -14.800781 1.488281 -14.585938 1.207031 -13.78125 C 0.710938 -11.796875 0.214844 -9.785156 0.125 -7.710938 C 0.09375 -7.246094 0.03125 -6.535156 0 -6.070312 Z M -0.1875 -2.570312 "/></g></g></g><g fill="#f8db9a" fill-opacity="1"><g transform="translate(257.975, 195.814557)"><g><path d="M -8.703125 -13.8125 C -8.703125 -13.378906 -8.390625 -13.285156 -8.050781 -13.285156 C -7.867188 -13.285156 -7.679688 -13.316406 -7.523438 -13.347656 C -7.246094 -13.933594 -7.554688 -13.8125 -6.78125 -14.121094 C -6.410156 -14.277344 -6.132812 -14.492188 -5.761719 -14.648438 C -3.839844 -15.390625 -2.074219 -15.917969 -0.03125 -16.414062 C 0.277344 -16.503906 0.992188 -16.628906 1.175781 -16.691406 L 0.898438 -13.8125 C 0.867188 -13.410156 0.835938 -12.726562 0.773438 -12.324219 C 0.621094 -11.425781 0.589844 -7.246094 0.589844 -6.070312 L 0.496094 -4.613281 C 0.496094 -2.355469 0.402344 1.332031 0.589844 3.5625 C 0.589844 4.304688 0.621094 5.417969 1.425781 5.417969 C 2.230469 5.417969 1.765625 3.28125 1.765625 2.570312 C 1.703125 1.207031 1.734375 -4.984375 1.828125 -5.914062 C 1.890625 -6.566406 1.828125 -7.957031 1.828125 -8.855469 C 1.828125 -9.289062 1.921875 -9.289062 1.921875 -9.691406 C 1.921875 -10.003906 1.890625 -10.375 1.921875 -10.652344 L 2.539062 -17 C 3.28125 -17.15625 7.988281 -18.054688 9.691406 -18.054688 C 9.910156 -18.054688 10.0625 -18.054688 10.1875 -18.023438 C 10.558594 -17.929688 10.46875 -18.054688 10.558594 -17.746094 C 11.738281 -17.746094 11.363281 -18.984375 9.910156 -18.984375 C 8.019531 -18.984375 6.195312 -18.671875 4.398438 -18.332031 C 3.933594 -18.269531 3.28125 -18.085938 2.785156 -18.085938 C 2.785156 -19.074219 3.40625 -18.269531 3.40625 -19.074219 C 3.40625 -19.261719 3.375 -19.386719 3.375 -19.480469 C 3.34375 -19.789062 3.40625 -19.539062 3.40625 -19.910156 C 3.40625 -20.40625 3.160156 -20.808594 2.816406 -20.808594 C 2.414062 -20.808594 1.921875 -20.253906 1.609375 -18.582031 C 1.394531 -17.527344 1.488281 -17.804688 0.1875 -17.464844 C -1.578125 -16.96875 -8.703125 -15.203125 -8.703125 -13.8125 Z M -8.703125 -13.8125 "/></g></g></g><g fill="#f8db9a" fill-opacity="1"><g transform="translate(261.566465, 195.814557)"><g><path d="M 0.371094 5.109375 C 0.371094 3.871094 1.269531 2.476562 2.011719 1.578125 C 2.382812 1.144531 3.128906 0.214844 3.625 -0.0625 C 3.625 0.804688 3.652344 1.488281 3.4375 2.199219 C 3.160156 3.21875 2.476562 4.707031 1.640625 5.328125 C 1.425781 5.511719 1.054688 5.761719 0.773438 5.761719 C 0.558594 5.761719 0.371094 5.574219 0.371094 5.109375 Z M 0.09375 -5.015625 C 0.09375 -3.375 2.261719 -2.847656 3.21875 -1.082031 C 2.757812 -0.339844 -0.621094 2.324219 -0.621094 5.109375 C -0.621094 6.222656 0 6.8125 0.867188 6.8125 C 1.796875 6.8125 2.972656 6.101562 3.871094 4.582031 C 5.945312 1.054688 4.675781 -0.742188 4.800781 -1.175781 C 4.863281 -1.425781 7.0625 -3.066406 7.402344 -3.25 L 9.507812 -4.707031 C 10.21875 -5.109375 10.28125 -5.636719 9.785156 -5.636719 C 9.507812 -5.636719 9.105469 -5.511719 8.578125 -5.140625 L 5.699219 -3.128906 C 5.234375 -2.726562 4.800781 -2.382812 4.304688 -2.042969 C 2.695312 -4.460938 0.371094 -4.367188 2.011719 -6.222656 C 2.476562 -6.75 2.382812 -6.597656 3.128906 -6.78125 C 3.3125 -7.554688 3.035156 -7.867188 2.601562 -7.867188 C 1.703125 -7.867188 0.09375 -6.597656 0.09375 -5.015625 Z M 0.09375 -5.015625 "/></g></g></g></svg>