<svg xmlns="http://www.w3.org/2000/svg" xmlns:xlink="http://www.w3.org/1999/xlink" width="500" zoomAndPan="magnify" viewBox="0 0 375 374.999991" height="500" preserveAspectRatio="xMidYMid meet" version="1.0"><defs><g/><clipPath id="53dd2150d3"><path d="M 123.492188 109.265625 L 241.992188 109.265625 L 241.992188 227.765625 L 123.492188 227.765625 Z M 123.492188 109.265625 " clip-rule="nonzero"/></clipPath><clipPath id="b99bb241c4"><path d="M 131.261719 44.773438 L 275.261719 44.773438 L 275.261719 161 L 131.261719 161 Z M 131.261719 44.773438 " clip-rule="nonzero"/></clipPath></defs><g clip-path="url(#53dd2150d3)"><path fill="#4d433a" d="M 182.726562 109.246094 C 215.433594 109.246094 241.941406 135.757812 241.941406 168.460938 C 241.941406 193.417969 226.5 214.769531 204.644531 223.484375 L 203.78125 204.828125 L 203.78125 204.789062 C 203.828125 201.097656 205.386719 198.191406 208.84375 196.730469 L 209.289062 196.550781 L 209.3125 196.542969 L 209.339844 196.53125 L 209.382812 196.515625 C 211.929688 195.484375 214 194.097656 215.414062 191.695312 C 217.175781 188.703125 217.519531 184.710938 217.519531 181.320312 C 217.519531 174.792969 215.59375 167.089844 212.28125 161.445312 C 209.925781 157.4375 206.210938 153.382812 201.195312 153.382812 C 196.179688 153.382812 192.464844 157.4375 190.109375 161.445312 C 186.792969 167.089844 184.871094 174.792969 184.871094 181.320312 C 184.871094 184.71875 185.210938 188.707031 186.976562 191.695312 C 188.40625 194.113281 190.5 195.503906 193.058594 196.535156 C 193.128906 196.5625 193.203125 196.59375 193.273438 196.625 L 193.292969 196.625 L 193.515625 196.71875 C 196.984375 198.175781 198.5625 201.050781 198.609375 204.789062 L 198.609375 204.828125 L 197.636719 225.785156 C 192.871094 227.023438 187.878906 227.679688 182.726562 227.679688 C 177.394531 227.679688 172.226562 226.96875 167.3125 225.648438 L 166.402344 206.027344 L 166.402344 205.984375 C 166.449219 202.203125 168.066406 199.21875 171.605469 197.722656 L 172.058594 197.542969 L 172.074219 197.539062 L 172.089844 197.53125 L 172.140625 197.511719 C 174.636719 196.5 176.675781 195.140625 178.0625 192.78125 C 179.804688 189.828125 180.136719 185.867188 180.136719 182.515625 C 180.136719 182.191406 180.125 181.867188 180.105469 181.542969 C 180.09375 181.355469 180.078125 181.167969 180.054688 180.984375 L 180.023438 180.710938 L 180.074219 180.527344 L 177.921875 155.480469 L 175.667969 155.484375 L 175.476562 181.953125 L 171.722656 182.324219 L 169.496094 152.40625 L 167.054688 152.554688 L 166.570312 182.695312 L 165.242188 182.75 C 164.964844 182.761719 164.6875 182.765625 164.414062 182.765625 C 164.136719 182.765625 163.855469 182.761719 163.578125 182.75 L 162.257812 182.695312 L 161.578125 152.554688 L 159.136719 152.410156 L 157.101562 182.328125 L 153.347656 181.957031 L 153.15625 155.484375 L 150.894531 155.484375 L 147.984375 180.539062 L 148.03125 180.714844 L 148 180.980469 C 147.980469 181.167969 147.964844 181.355469 147.953125 181.542969 C 147.929688 181.867188 147.917969 182.191406 147.917969 182.515625 C 147.917969 185.867188 148.253906 189.828125 149.992188 192.78125 C 151.394531 195.160156 153.453125 196.519531 155.96875 197.53125 C 156.027344 197.554688 156.085938 197.578125 156.140625 197.601562 L 156.164062 197.601562 L 156.425781 197.714844 C 159.972656 199.207031 161.601562 202.160156 161.652344 205.984375 L 161.652344 206.027344 L 160.84375 223.511719 C 138.964844 214.8125 123.496094 193.449219 123.496094 168.464844 C 123.511719 135.753906 150.019531 109.246094 182.726562 109.246094 " fill-opacity="1" fill-rule="evenodd"/></g><path fill="#f6f5f4" d="M 204.128906 72.699219 C 205.183594 72.699219 205.183594 71.046875 204.128906 71.046875 C 203.074219 71.046875 203.074219 72.699219 204.128906 72.699219 Z M 204.128906 72.699219 " fill-opacity="1" fill-rule="nonzero"/><g clip-path="url(#b99bb241c4)"><path fill="#ebb22f" d="M 135.9375 67.003906 C 136.816406 65.074219 137.835938 63.105469 139.171875 61.171875 C 140.472656 59.238281 142.019531 57.269531 144.058594 55.371094 C 145.078125 54.421875 146.238281 53.472656 147.539062 52.59375 C 148.101562 52.207031 148.59375 51.890625 149.15625 51.539062 C 149.683594 51.1875 150.246094 50.871094 150.804688 50.554688 C 153.054688 49.253906 155.515625 48.058594 158.257812 47.074219 C 160.964844 46.089844 163.953125 45.351562 166.976562 45.035156 C 167.75 44.964844 168.488281 44.894531 169.261719 44.859375 C 170.035156 44.824219 170.773438 44.824219 171.511719 44.859375 C 173.023438 44.894531 174.460938 45.070312 175.867188 45.316406 C 178.679688 45.808594 181.210938 46.617188 183.496094 47.636719 C 185.746094 48.65625 187.75 49.816406 189.542969 51.082031 C 190.421875 51.714844 191.300781 52.382812 192.109375 53.050781 C 192.917969 53.71875 193.691406 54.421875 194.394531 55.125 C 195.132812 55.828125 195.835938 56.53125 196.503906 57.269531 C 196.855469 57.621094 197.171875 58.007812 197.488281 58.359375 L 197.980469 58.921875 L 198.402344 59.449219 C 198.960938 60.117188 199.488281 60.75 200.050781 61.417969 L 200.894531 62.402344 L 201.773438 63.386719 C 206.097656 68.164062 210.773438 72.875 215.589844 77.550781 C 216.328125 77.375 217.066406 77.234375 217.839844 77.128906 C 218.824219 76.953125 219.808594 76.847656 220.828125 76.742188 C 221.8125 76.636719 222.828125 76.566406 223.8125 76.53125 C 224.304688 76.496094 224.832031 76.496094 225.324219 76.496094 C 225.816406 76.496094 226.34375 76.496094 226.835938 76.496094 C 230.84375 76.566406 234.921875 77.164062 238.683594 78.464844 C 239.632812 78.78125 240.546875 79.167969 241.460938 79.589844 C 242.375 80.011719 243.21875 80.503906 244.0625 80.996094 C 244.90625 81.523438 245.679688 82.085938 246.414062 82.683594 C 247.152344 83.28125 247.855469 83.949219 248.488281 84.652344 C 248.804688 85.003906 249.121094 85.355469 249.402344 85.707031 C 249.683594 86.058594 249.964844 86.445312 250.246094 86.832031 C 250.773438 87.570312 251.230469 88.378906 251.652344 89.152344 C 251.96875 89.746094 252.25 90.378906 252.496094 91.011719 C 253.304688 91.117188 254.078125 91.257812 254.816406 91.433594 C 256.609375 91.820312 258.367188 92.3125 260.054688 92.980469 C 263.429688 94.28125 266.488281 96.144531 268.914062 98.535156 C 270.144531 99.730469 271.160156 101.03125 272.039062 102.4375 C 272.460938 103.140625 272.847656 103.84375 273.199219 104.546875 C 273.550781 105.285156 273.832031 106.023438 274.078125 106.761719 C 274.570312 108.238281 274.921875 109.75 275.097656 111.261719 C 275.132812 111.648438 275.167969 112 275.203125 112.386719 C 275.238281 112.773438 275.238281 113.125 275.273438 113.507812 C 275.273438 113.894531 275.308594 114.246094 275.308594 114.632812 L 275.308594 115.757812 C 275.238281 117.339844 274.992188 118.992188 274.5 120.75 C 273.972656 122.507812 273.164062 124.335938 271.898438 126.164062 C 271.265625 127.078125 270.527344 127.992188 269.652344 128.835938 C 268.773438 129.679688 267.824219 130.488281 266.804688 131.226562 C 265.785156 131.964844 264.695312 132.597656 263.570312 133.125 C 262.445312 133.6875 261.320312 134.109375 260.195312 134.496094 C 257.945312 135.269531 255.765625 135.726562 253.65625 136.007812 C 251.582031 136.289062 249.578125 136.394531 247.644531 136.429688 C 246.765625 136.429688 245.890625 136.394531 245.046875 136.359375 C 244.589844 138.359375 244.132812 140.328125 243.675781 142.332031 C 243.183594 144.441406 242.65625 146.550781 242.128906 148.660156 C 241.601562 150.769531 241.074219 152.878906 240.511719 154.988281 L 240.230469 156.078125 C 239.914062 157.273438 239.035156 158.398438 237.628906 159.171875 C 234.992188 160.683594 231.582031 160.332031 230 158.398438 C 230 158.398438 229.929688 158.328125 229.894531 158.292969 L 229.789062 158.1875 L 229.542969 157.976562 L 229.050781 157.519531 C 228.734375 157.203125 228.382812 156.921875 228.03125 156.605469 C 227.328125 156.007812 226.625 155.410156 225.921875 154.8125 C 224.480469 153.617188 223.003906 152.421875 221.53125 151.296875 C 218.542969 148.976562 215.378906 146.761719 212.144531 144.617188 C 208.875 142.472656 205.5 140.433594 201.984375 138.5 C 198.46875 136.570312 194.78125 134.777344 190.949219 133.054688 C 192.074219 133.160156 193.199219 133.265625 194.324219 133.441406 C 194.886719 133.511719 195.449219 133.617188 196.011719 133.6875 L 197.664062 133.96875 L 198.503906 134.109375 L 199.3125 134.285156 L 200.964844 134.636719 C 201.492188 134.742188 202.054688 134.882812 202.582031 135.023438 C 203.109375 135.164062 203.671875 135.269531 204.199219 135.410156 C 208.488281 136.5 212.671875 137.867188 216.679688 139.449219 C 220.6875 141.03125 224.585938 142.824219 228.3125 144.792969 C 228.769531 145.039062 229.191406 145.285156 229.648438 145.496094 C 229.71875 144.863281 229.789062 144.265625 229.894531 143.632812 C 229.753906 143.527344 229.613281 143.386719 229.472656 143.28125 C 229.050781 142.929688 228.59375 142.578125 228.136719 142.226562 C 226.34375 140.855469 224.515625 139.519531 222.582031 138.253906 C 220.652344 136.992188 218.648438 135.796875 216.539062 134.671875 C 214.429688 133.582031 212.214844 132.597656 209.789062 131.824219 C 212.460938 131.929688 215.132812 132.28125 217.769531 132.773438 C 220.371094 133.265625 222.933594 133.898438 225.464844 134.601562 C 227.292969 135.128906 229.085938 135.691406 230.84375 136.253906 C 230.878906 136.078125 230.878906 135.867188 230.914062 135.691406 C 230.949219 135.339844 231.019531 134.988281 231.054688 134.636719 C 230.316406 133.96875 229.578125 133.265625 228.804688 132.632812 C 227.714844 131.753906 226.589844 130.839844 225.359375 130.066406 C 224.128906 129.257812 222.863281 128.519531 221.390625 127.921875 C 223.109375 127.851562 224.867188 127.992188 226.589844 128.167969 C 228.3125 128.378906 230 128.660156 231.6875 129.011719 C 231.757812 129.011719 231.792969 129.046875 231.863281 129.046875 C 231.898438 128.835938 231.96875 128.589844 232.039062 128.378906 C 233.199219 125.214844 237.242188 123.105469 241.074219 123.667969 L 241.777344 123.773438 L 242.550781 123.878906 C 242.867188 123.914062 243.183594 123.949219 243.5 123.984375 C 244.132812 124.054688 244.765625 124.125 245.433594 124.160156 C 246.730469 124.265625 247.996094 124.265625 249.261719 124.230469 C 251.722656 124.195312 254.078125 123.808594 255.660156 123.246094 C 256.46875 122.964844 257.066406 122.648438 257.558594 122.332031 C 257.804688 122.15625 258.015625 121.980469 258.226562 121.804688 C 258.4375 121.59375 258.613281 121.382812 258.789062 121.136719 C 259.175781 120.644531 259.492188 119.976562 259.773438 119.203125 C 260.019531 118.429688 260.230469 117.515625 260.300781 116.566406 L 260.335938 116.390625 L 260.335938 116.179688 L 260.371094 115.792969 C 260.40625 115.546875 260.40625 115.265625 260.40625 115.019531 L 260.40625 114.246094 C 260.40625 114 260.40625 113.753906 260.371094 113.507812 C 260.300781 112.527344 260.195312 111.578125 259.949219 110.664062 C 259.738281 109.75 259.421875 108.871094 259.035156 108.0625 C 258.648438 107.253906 258.15625 106.480469 257.558594 105.742188 C 256.960938 105.003906 256.292969 104.335938 255.519531 103.703125 C 254.746094 103.070312 253.867188 102.507812 252.917969 101.980469 C 251.96875 101.453125 250.914062 101.03125 249.824219 100.644531 C 249.261719 100.46875 248.699219 100.292969 248.136719 100.117188 C 247.855469 100.046875 247.574219 99.976562 247.292969 99.90625 L 246.90625 99.835938 L 246.730469 99.800781 L 246.625 99.800781 L 246.660156 99.800781 L 242.09375 96.320312 C 242.023438 95.054688 241.882812 93.789062 241.566406 92.59375 C 241.25 91.398438 240.792969 90.238281 240.195312 89.152344 C 238.964844 86.972656 237.101562 85.003906 234.605469 83.386719 C 233.375 82.578125 231.96875 81.875 230.492188 81.242188 C 229.753906 80.925781 228.980469 80.644531 228.171875 80.363281 C 227.363281 80.082031 226.554688 79.835938 225.710938 79.589844 C 225.289062 79.484375 224.867188 79.378906 224.445312 79.273438 C 224.023438 79.167969 223.601562 79.0625 223.144531 78.957031 C 222.269531 78.746094 221.390625 78.605469 220.476562 78.429688 C 218.964844 78.183594 217.453125 77.9375 215.871094 77.796875 C 216.152344 78.078125 216.433594 78.359375 216.714844 78.605469 L 220.652344 82.367188 L 224.621094 86.164062 C 227.292969 88.695312 229.929688 91.222656 232.601562 93.824219 C 230.632812 93.15625 228.769531 92.382812 226.90625 91.574219 C 225.992188 91.1875 225.042969 90.765625 224.128906 90.34375 L 221.425781 89.082031 C 217.804688 87.359375 214.324219 85.496094 210.914062 83.5625 C 207.503906 81.59375 204.199219 79.554688 201 77.339844 C 197.804688 75.160156 194.710938 72.839844 191.757812 70.378906 C 191.019531 69.746094 190.28125 69.148438 189.578125 68.515625 C 188.839844 67.882812 188.136719 67.25 187.433594 66.582031 L 186.449219 65.703125 C 186.132812 65.421875 185.816406 65.144531 185.5 64.863281 C 184.867188 64.300781 184.234375 63.773438 183.566406 63.28125 C 182.265625 62.261719 180.929688 61.3125 179.558594 60.46875 C 178.1875 59.660156 176.78125 58.921875 175.375 58.394531 C 173.972656 57.832031 172.601562 57.480469 171.230469 57.269531 C 169.894531 57.058594 168.558594 57.058594 167.222656 57.199219 C 165.886719 57.339844 164.515625 57.691406 163.074219 58.183594 C 162.335938 58.429688 161.632812 58.746094 160.859375 59.097656 C 160.121094 59.449219 159.347656 59.835938 158.609375 60.222656 C 158.222656 60.433594 157.835938 60.644531 157.484375 60.890625 C 157.097656 61.101562 156.710938 61.347656 156.359375 61.59375 C 155.902344 61.875 155.410156 62.261719 154.882812 62.683594 C 153.863281 63.5625 152.84375 64.722656 151.929688 65.984375 C 151.015625 67.25 150.140625 68.621094 149.367188 70.0625 C 148.59375 71.503906 147.925781 73.015625 147.328125 74.527344 C 146.730469 76.074219 146.203125 77.621094 145.78125 79.203125 C 145.324219 80.785156 144.972656 82.402344 144.691406 83.984375 C 144.09375 87.21875 143.847656 90.449219 143.847656 93.683594 C 143.882812 99.0625 144.761719 104.40625 146.695312 109.503906 C 146.730469 109.503906 146.765625 109.46875 146.765625 109.46875 C 147.855469 109.117188 148.945312 108.765625 150.035156 108.414062 C 149.894531 107.464844 149.824219 106.550781 149.753906 105.601562 C 149.613281 103.703125 149.578125 101.804688 149.613281 99.90625 C 149.648438 98.007812 149.753906 96.109375 149.964844 94.210938 C 150.175781 92.3125 150.453125 90.449219 150.804688 88.554688 C 151.15625 86.691406 151.613281 84.792969 152.105469 82.929688 L 152.492188 81.523438 C 152.632812 81.066406 152.773438 80.609375 152.949219 80.152344 C 153.230469 79.238281 153.582031 78.324219 153.898438 77.410156 C 155.269531 73.753906 156.957031 70.167969 158.960938 66.6875 C 157.765625 70.308594 156.921875 73.964844 156.429688 77.585938 C 156.324219 78.5 156.183594 79.378906 156.113281 80.292969 C 156.078125 80.75 156.042969 81.207031 156.007812 81.628906 L 155.9375 82.964844 C 155.867188 84.757812 155.832031 86.550781 155.9375 88.308594 C 156.007812 90.0625 156.148438 91.820312 156.394531 93.542969 C 156.640625 95.265625 156.921875 96.988281 157.308594 98.675781 C 157.695312 100.363281 158.152344 102.015625 158.679688 103.632812 C 158.960938 104.441406 159.242188 105.25 159.523438 106.023438 C 159.523438 106.058594 159.558594 106.09375 159.558594 106.128906 C 160.894531 105.882812 162.265625 105.707031 163.601562 105.53125 C 163.601562 105.390625 163.636719 105.214844 163.636719 105.039062 C 163.742188 103.878906 163.882812 102.71875 164.09375 101.59375 C 164.480469 99.308594 164.972656 97.058594 165.640625 94.84375 L 165.886719 94 L 166.167969 93.15625 C 166.34375 92.59375 166.519531 92.066406 166.730469 91.503906 C 167.152344 90.414062 167.539062 89.328125 168.03125 88.238281 C 168.945312 86.09375 170.070312 83.984375 171.230469 81.910156 C 170.878906 84.089844 170.597656 86.234375 170.5625 88.378906 C 170.492188 89.429688 170.527344 90.484375 170.5625 91.539062 C 170.5625 92.066406 170.632812 92.59375 170.632812 93.121094 L 170.667969 93.894531 L 170.738281 94.667969 C 170.949219 96.742188 171.300781 98.746094 171.757812 100.714844 C 172.003906 101.699219 172.285156 102.683594 172.566406 103.632812 C 172.707031 104.019531 172.847656 104.441406 172.988281 104.828125 L 176.078125 104.828125 C 176.113281 104.511719 176.148438 104.230469 176.183594 103.914062 C 176.359375 102.367188 176.605469 100.855469 176.992188 99.378906 L 177.273438 98.253906 C 177.378906 97.867188 177.484375 97.515625 177.589844 97.128906 C 177.835938 96.390625 178.046875 95.652344 178.328125 94.949219 C 178.820312 93.507812 179.488281 92.066406 180.15625 90.695312 C 180.332031 92.101562 180.507812 93.472656 180.859375 94.808594 C 181 95.476562 181.210938 96.144531 181.421875 96.777344 C 181.527344 97.09375 181.632812 97.410156 181.738281 97.761719 L 181.914062 98.253906 L 182.089844 98.710938 C 182.582031 99.976562 183.144531 101.207031 183.777344 102.367188 C 184.09375 102.964844 184.445312 103.527344 184.796875 104.089844 C 184.972656 104.371094 185.148438 104.652344 185.359375 104.898438 C 185.464844 105.039062 185.535156 105.144531 185.640625 105.285156 C 185.675781 105.320312 185.710938 105.390625 185.746094 105.425781 C 187.152344 105.566406 188.523438 105.742188 189.859375 105.953125 C 193.199219 106.445312 196.46875 107.078125 199.664062 107.851562 C 202.863281 108.589844 205.957031 109.503906 208.980469 110.523438 C 210.492188 111.015625 211.96875 111.542969 213.445312 112.140625 C 214.921875 112.703125 216.328125 113.300781 217.769531 113.929688 C 220.582031 115.195312 223.320312 116.53125 225.851562 118.113281 C 219.421875 117.058594 213.023438 116.214844 206.625 115.582031 C 203.425781 115.265625 200.261719 115.019531 197.066406 114.84375 C 195.414062 114.738281 193.796875 114.703125 192.179688 114.632812 C 190.632812 114.597656 189.121094 114.5625 187.574219 114.5625 C 184.410156 114.5625 181.28125 114.667969 178.152344 114.84375 C 177.871094 114.878906 177.554688 114.878906 177.273438 114.914062 C 176.78125 114.949219 176.289062 114.984375 175.832031 115.019531 L 175.234375 115.054688 L 174.671875 115.125 L 173.515625 115.230469 L 172.355469 115.335938 C 171.96875 115.371094 171.582031 115.441406 171.195312 115.476562 C 170.421875 115.582031 169.683594 115.652344 168.910156 115.792969 L 166.660156 116.144531 L 163.285156 116.777344 C 162.898438 116.847656 162.546875 116.953125 162.195312 117.023438 C 161.457031 117.199219 160.71875 117.375 160.015625 117.550781 L 157.871094 118.148438 L 157.34375 118.289062 C 157.167969 118.324219 156.992188 118.394531 156.816406 118.464844 L 155.761719 118.816406 C 155.585938 118.851562 155.410156 118.921875 155.234375 118.957031 C 154.882812 119.941406 154.496094 120.960938 154.109375 121.945312 C 154.109375 121.980469 154.074219 122.015625 154.074219 122.050781 L 152.984375 124.933594 L 152.914062 125.074219 L 151.71875 128.097656 C 151.191406 129.433594 150.664062 130.769531 150.140625 132.105469 C 150.175781 132.105469 150.210938 132.105469 150.28125 132.105469 C 152.105469 132.035156 153.898438 132 155.691406 132 C 156.605469 132 157.484375 132 158.398438 132.035156 C 159.3125 132.035156 160.191406 132.105469 161.070312 132.105469 C 162.863281 132.175781 164.621094 132.28125 166.414062 132.421875 C 167.292969 132.492188 168.171875 132.5625 169.050781 132.667969 L 170.386719 132.808594 L 171.6875 132.949219 C 173.445312 133.160156 175.164062 133.40625 176.886719 133.6875 L 179.453125 134.144531 C 180.296875 134.285156 181.140625 134.496094 181.984375 134.671875 C 185.359375 135.410156 188.664062 136.253906 191.828125 137.339844 C 192.214844 137.480469 192.636719 137.585938 193.023438 137.726562 L 195.34375 138.570312 C 195.730469 138.710938 196.117188 138.851562 196.503906 139.027344 C 197.277344 139.34375 198.015625 139.660156 198.75 139.976562 C 199.136719 140.117188 199.488281 140.292969 199.875 140.46875 L 200.964844 140.996094 C 201.703125 141.347656 202.40625 141.664062 203.109375 142.085938 L 205.183594 143.210938 C 205.851562 143.597656 206.519531 144.019531 207.1875 144.441406 L 208.171875 145.074219 L 209.121094 145.742188 C 209.753906 146.164062 210.351562 146.621094 210.984375 147.078125 C 211.582031 147.535156 212.179688 148.027344 212.742188 148.484375 L 213.621094 149.1875 C 213.902344 149.433594 214.148438 149.679688 214.429688 149.925781 C 214.957031 150.417969 215.484375 150.945312 216.011719 151.4375 C 215.238281 151.15625 214.5 150.875 213.761719 150.59375 C 213.375 150.453125 213.023438 150.3125 212.636719 150.171875 L 211.511719 149.785156 C 210.738281 149.539062 210 149.257812 209.261719 149.011719 C 208.488281 148.765625 207.714844 148.554688 206.976562 148.308594 L 205.851562 147.957031 L 204.691406 147.640625 L 202.40625 147.007812 C 200.859375 146.65625 199.347656 146.234375 197.769531 145.917969 L 196.609375 145.671875 C 196.222656 145.601562 195.835938 145.496094 195.449219 145.425781 C 194.675781 145.285156 193.867188 145.144531 193.09375 145.003906 C 192.320312 144.863281 191.511719 144.757812 190.738281 144.617188 L 189.578125 144.441406 C 189.191406 144.371094 188.769531 144.335938 188.382812 144.300781 C 185.21875 143.84375 182.019531 143.5625 178.820312 143.316406 C 175.621094 143.070312 172.390625 142.964844 169.15625 142.929688 L 166.730469 142.929688 C 165.921875 142.929688 165.113281 142.929688 164.304688 142.964844 C 163.496094 143 162.6875 143 161.878906 143.035156 C 161.070312 143.070312 160.261719 143.070312 159.453125 143.105469 C 157.835938 143.175781 156.21875 143.246094 154.566406 143.351562 C 153.757812 143.421875 152.949219 143.457031 152.140625 143.527344 L 150.910156 143.632812 L 149.71875 143.738281 C 148.101562 143.878906 146.484375 144.054688 144.902344 144.265625 C 144.09375 144.371094 143.320312 144.476562 142.546875 144.582031 C 142.160156 144.617188 141.773438 144.6875 141.386719 144.757812 L 140.824219 144.828125 L 140.578125 144.863281 L 140.367188 144.898438 C 139.417969 145.074219 138.433594 145.109375 137.449219 144.96875 C 133.511719 144.40625 131.261719 141.3125 132.457031 138.042969 L 132.527344 137.832031 C 133.265625 135.832031 134.039062 133.792969 134.8125 131.789062 C 135.585938 129.785156 136.359375 127.78125 137.167969 125.742188 L 138.363281 122.71875 L 139.59375 119.695312 C 140.191406 118.183594 140.824219 116.707031 141.457031 115.195312 C 139.136719 112.386719 137.273438 109.257812 135.796875 106.023438 C 134.285156 102.648438 133.195312 99.097656 132.5625 95.476562 C 131.894531 91.855469 131.683594 88.097656 131.894531 84.335938 C 132 82.4375 132.210938 80.539062 132.527344 78.605469 C 132.84375 76.707031 133.300781 74.773438 133.863281 72.839844 C 134.390625 70.90625 135.058594 68.972656 135.9375 67.003906 Z M 135.9375 67.003906 " fill-opacity="1" fill-rule="nonzero"/></g><g fill="#ebb22f" fill-opacity="1"><g transform="translate(73.935379, 282.076745)"><g><path d="M 7.371094 -58.304688 C 7.371094 -57.347656 7.660156 -57.0625 8.425781 -57.0625 C 9.09375 -57.0625 9.476562 -58.210938 11.296875 -59.648438 C 13.308594 -61.273438 18.667969 -65.105469 22.402344 -65.105469 C 23.359375 -65.105469 24.222656 -64.816406 24.894531 -64.148438 C 28.148438 -60.890625 22.308594 -47.199219 21.351562 -45 L 18.382812 -37.914062 C 17.710938 -36.574219 16.371094 -33.796875 17.042969 -32.265625 C 17.328125 -31.402344 17.902344 -31.117188 18.574219 -31.117188 C 19.722656 -31.117188 21.160156 -32.074219 21.925781 -32.359375 C 23.839844 -33.125 25.5625 -33.507812 27 -33.507812 C 30.925781 -33.507812 32.550781 -30.734375 30.734375 -25.371094 C 29.96875 -23.074219 28.53125 -20.96875 27.09375 -18.957031 C 22.882812 -13.691406 16.5625 -8.902344 11.203125 -4.882812 L 5.171875 -0.765625 C 3.542969 0.191406 1.339844 -0.863281 1.820312 0.957031 C 2.011719 1.722656 2.585938 2.011719 3.351562 2.011719 C 8.519531 2.011719 26.617188 -12.734375 30.160156 -17.234375 C 37.148438 -25.851562 35.617188 -36.285156 27.382812 -36.285156 C 26.710938 -36.285156 25.945312 -36.191406 25.085938 -36 C 23.265625 -35.617188 21.542969 -34.660156 20.585938 -34.5625 C 21.542969 -36.382812 22.59375 -38.007812 23.359375 -39.925781 C 25.753906 -45.765625 32.074219 -59.265625 27.574219 -65.582031 C 26.425781 -67.113281 24.703125 -67.785156 22.785156 -67.785156 C 19.339844 -67.785156 15.414062 -65.871094 13.308594 -64.53125 C 11.871094 -63.570312 7.371094 -60.222656 7.371094 -58.304688 Z M 7.371094 -58.304688 "/></g></g></g><g fill="#ebb22f" fill-opacity="1"><g transform="translate(109.643913, 282.076745)"><g><path d="M 7.371094 -58.304688 C 7.371094 -57.347656 7.660156 -57.0625 8.425781 -57.0625 C 9.09375 -57.0625 9.476562 -58.210938 11.296875 -59.648438 C 13.308594 -61.273438 18.667969 -65.105469 22.402344 -65.105469 C 23.359375 -65.105469 24.222656 -64.816406 24.894531 -64.148438 C 28.148438 -60.890625 22.308594 -47.199219 21.351562 -45 L 18.382812 -37.914062 C 17.710938 -36.574219 16.371094 -33.796875 17.042969 -32.265625 C 17.328125 -31.402344 17.902344 -31.117188 18.574219 -31.117188 C 19.722656 -31.117188 21.160156 -32.074219 21.925781 -32.359375 C 23.839844 -33.125 25.5625 -33.507812 27 -33.507812 C 30.925781 -33.507812 32.550781 -30.734375 30.734375 -25.371094 C 29.96875 -23.074219 28.53125 -20.96875 27.09375 -18.957031 C 22.882812 -13.691406 16.5625 -8.902344 11.203125 -4.882812 L 5.171875 -0.765625 C 3.542969 0.191406 1.339844 -0.863281 1.820312 0.957031 C 2.011719 1.722656 2.585938 2.011719 3.351562 2.011719 C 8.519531 2.011719 26.617188 -12.734375 30.160156 -17.234375 C 37.148438 -25.851562 35.617188 -36.285156 27.382812 -36.285156 C 26.710938 -36.285156 25.945312 -36.191406 25.085938 -36 C 23.265625 -35.617188 21.542969 -34.660156 20.585938 -34.5625 C 21.542969 -36.382812 22.59375 -38.007812 23.359375 -39.925781 C 25.753906 -45.765625 32.074219 -59.265625 27.574219 -65.582031 C 26.425781 -67.113281 24.703125 -67.785156 22.785156 -67.785156 C 19.339844 -67.785156 15.414062 -65.871094 13.308594 -64.53125 C 11.871094 -63.570312 7.371094 -60.222656 7.371094 -58.304688 Z M 7.371094 -58.304688 "/></g></g></g><g fill="#ebb22f" fill-opacity="1"><g transform="translate(145.352446, 282.076745)"><g><path d="M 1.148438 15.796875 C 1.148438 11.96875 3.925781 7.660156 6.222656 4.882812 C 7.371094 3.542969 9.667969 0.671875 11.203125 -0.191406 C 11.203125 2.488281 11.296875 4.59375 10.628906 6.796875 C 9.765625 9.957031 7.660156 14.550781 5.074219 16.46875 C 4.402344 17.042969 3.253906 17.808594 2.394531 17.808594 C 1.722656 17.808594 1.148438 17.234375 1.148438 15.796875 Z M 0.289062 -15.511719 C 0.289062 -10.4375 6.988281 -8.808594 9.957031 -3.351562 C 8.519531 -1.054688 -1.914062 7.179688 -1.914062 15.796875 C -1.914062 19.242188 0 21.0625 2.679688 21.0625 C 5.554688 21.0625 9.191406 18.859375 11.96875 14.167969 C 18.382812 3.253906 14.457031 -2.296875 14.839844 -3.636719 C 15.03125 -4.402344 21.828125 -9.476562 22.882812 -10.054688 L 29.390625 -14.550781 C 31.59375 -15.796875 31.785156 -17.425781 30.253906 -17.425781 C 29.390625 -17.425781 28.148438 -17.042969 26.519531 -15.894531 L 17.617188 -9.667969 C 16.179688 -8.425781 14.839844 -7.371094 13.308594 -6.320312 C 8.328125 -13.785156 1.148438 -13.5 6.222656 -19.242188 C 7.660156 -20.871094 7.371094 -20.394531 9.667969 -20.96875 C 10.246094 -23.359375 9.382812 -24.316406 8.042969 -24.316406 C 5.265625 -24.316406 0.289062 -20.394531 0.289062 -15.511719 Z M 0.289062 -15.511719 "/></g></g></g><g fill="#4d433a" fill-opacity="1"><g transform="translate(177.411321, 259.999949)"><g><path d="M 1.359375 -0.3125 L 1.515625 -0.3125 C 1.660156 -0.3125 1.796875 -0.375 1.921875 -0.5 C 2.046875 -0.625 2.15625 -0.765625 2.25 -0.921875 C 2.34375 -1.085938 2.410156 -1.269531 2.453125 -1.46875 C 2.492188 -1.664062 2.515625 -1.847656 2.515625 -2.015625 L 2.515625 -18.515625 C 2.515625 -18.660156 2.492188 -18.828125 2.453125 -19.015625 C 2.410156 -19.203125 2.347656 -19.375 2.265625 -19.53125 C 2.179688 -19.695312 2.078125 -19.835938 1.953125 -19.953125 C 1.828125 -20.066406 1.679688 -20.125 1.515625 -20.125 L 1.359375 -20.125 L 1.359375 -20.4375 L 7.34375 -20.4375 C 8.96875 -20.4375 10.429688 -20.148438 11.734375 -19.578125 C 13.035156 -19.015625 14.132812 -18.253906 15.03125 -17.296875 C 15.925781 -16.335938 16.613281 -15.238281 17.09375 -14 C 17.570312 -12.757812 17.8125 -11.46875 17.8125 -10.125 C 17.8125 -8.863281 17.582031 -7.628906 17.125 -6.421875 C 16.664062 -5.210938 15.984375 -4.132812 15.078125 -3.1875 C 14.171875 -2.238281 13.035156 -1.46875 11.671875 -0.875 C 10.304688 -0.289062 8.726562 0 6.9375 0 L 1.359375 0 Z M 15.703125 -9.65625 C 15.703125 -10.976562 15.460938 -12.226562 14.984375 -13.40625 C 14.515625 -14.582031 13.847656 -15.609375 12.984375 -16.484375 C 12.128906 -17.367188 11.117188 -18.066406 9.953125 -18.578125 C 8.785156 -19.097656 7.519531 -19.359375 6.15625 -19.359375 L 4.578125 -19.359375 L 4.578125 -1.078125 L 6.21875 -1.078125 C 7.332031 -1.078125 8.453125 -1.25 9.578125 -1.59375 C 10.703125 -1.9375 11.71875 -2.460938 12.625 -3.171875 C 13.539062 -3.890625 14.28125 -4.785156 14.84375 -5.859375 C 15.414062 -6.929688 15.703125 -8.195312 15.703125 -9.65625 Z M 15.703125 -9.65625 "/></g></g></g><g fill="#4d433a" fill-opacity="1"><g transform="translate(196.483242, 259.999949)"><g><path d="M 3.09375 -6.25 C 3.175781 -5.53125 3.351562 -4.84375 3.625 -4.1875 C 3.894531 -3.539062 4.25 -2.96875 4.6875 -2.46875 C 5.132812 -1.976562 5.675781 -1.582031 6.3125 -1.28125 C 6.957031 -0.988281 7.703125 -0.84375 8.546875 -0.84375 C 9.003906 -0.84375 9.484375 -0.90625 9.984375 -1.03125 C 10.492188 -1.164062 10.960938 -1.359375 11.390625 -1.609375 C 11.828125 -1.859375 12.210938 -2.160156 12.546875 -2.515625 C 12.890625 -2.878906 13.125 -3.289062 13.25 -3.75 L 13.53125 -3.75 L 13.53125 -1.421875 C 13.40625 -1.421875 13.265625 -1.378906 13.109375 -1.296875 C 12.960938 -1.210938 12.785156 -1.109375 12.578125 -0.984375 C 12.160156 -0.742188 11.597656 -0.484375 10.890625 -0.203125 C 10.191406 0.078125 9.265625 0.21875 8.109375 0.21875 C 7.179688 0.21875 6.300781 0.0820312 5.46875 -0.1875 C 4.632812 -0.457031 3.894531 -0.867188 3.25 -1.421875 C 2.613281 -1.984375 2.101562 -2.695312 1.71875 -3.5625 C 1.332031 -4.425781 1.140625 -5.457031 1.140625 -6.65625 C 1.140625 -7.414062 1.269531 -8.1875 1.53125 -8.96875 C 1.789062 -9.757812 2.179688 -10.46875 2.703125 -11.09375 C 3.234375 -11.726562 3.910156 -12.238281 4.734375 -12.625 C 5.566406 -13.019531 6.5625 -13.21875 7.71875 -13.21875 C 8.75 -13.21875 9.648438 -13.039062 10.421875 -12.6875 C 11.191406 -12.34375 11.828125 -11.859375 12.328125 -11.234375 C 12.835938 -10.617188 13.21875 -9.882812 13.46875 -9.03125 C 13.71875 -8.1875 13.84375 -7.257812 13.84375 -6.25 Z M 7.59375 -12.203125 C 6.863281 -12.203125 6.234375 -12.054688 5.703125 -11.765625 C 5.179688 -11.472656 4.734375 -11.097656 4.359375 -10.640625 C 3.992188 -10.191406 3.707031 -9.675781 3.5 -9.09375 C 3.289062 -8.519531 3.15625 -7.945312 3.09375 -7.375 L 11.921875 -7.375 C 11.898438 -7.96875 11.789062 -8.550781 11.59375 -9.125 C 11.394531 -9.707031 11.117188 -10.222656 10.765625 -10.671875 C 10.421875 -11.128906 9.976562 -11.5 9.4375 -11.78125 C 8.90625 -12.0625 8.289062 -12.203125 7.59375 -12.203125 Z M 7.59375 -12.203125 "/></g></g></g><g fill="#4d433a" fill-opacity="1"><g transform="translate(211.499286, 259.999949)"><g><path d="M 1.515625 0 L 1.515625 -0.3125 C 1.679688 -0.3125 1.828125 -0.375 1.953125 -0.5 C 2.078125 -0.625 2.1875 -0.765625 2.28125 -0.921875 C 2.375 -1.085938 2.441406 -1.269531 2.484375 -1.46875 C 2.523438 -1.664062 2.546875 -1.847656 2.546875 -2.015625 L 2.546875 -17.875 C 2.546875 -18.21875 2.492188 -18.546875 2.390625 -18.859375 C 2.285156 -19.171875 1.972656 -19.335938 1.453125 -19.359375 L 1.453125 -19.671875 L 4.578125 -20.625 L 4.578125 -2.015625 C 4.578125 -1.847656 4.597656 -1.664062 4.640625 -1.46875 C 4.679688 -1.269531 4.75 -1.085938 4.84375 -0.921875 C 4.9375 -0.765625 5.039062 -0.625 5.15625 -0.5 C 5.269531 -0.375 5.410156 -0.3125 5.578125 -0.3125 L 5.578125 0 Z M 1.515625 0 "/></g></g></g><g fill="#4d433a" fill-opacity="1"><g transform="translate(218.651259, 259.999949)"><g><path d="M 1.828125 0 L 1.828125 -0.3125 C 1.992188 -0.3125 2.140625 -0.375 2.265625 -0.5 C 2.390625 -0.625 2.488281 -0.765625 2.5625 -0.921875 C 2.644531 -1.085938 2.707031 -1.269531 2.75 -1.46875 C 2.789062 -1.664062 2.8125 -1.847656 2.8125 -2.015625 L 2.8125 -10.59375 C 2.8125 -10.945312 2.757812 -11.28125 2.65625 -11.59375 C 2.5625 -11.914062 2.265625 -12.085938 1.765625 -12.109375 L 1.765625 -12.390625 L 4.859375 -13.375 L 4.859375 -2.015625 C 4.859375 -1.847656 4.878906 -1.664062 4.921875 -1.46875 C 4.960938 -1.269531 5.023438 -1.085938 5.109375 -0.921875 C 5.191406 -0.765625 5.296875 -0.625 5.421875 -0.5 C 5.546875 -0.375 5.691406 -0.3125 5.859375 -0.3125 L 5.859375 0 Z M 1.984375 -16.34375 C 1.984375 -16.757812 2.117188 -17.113281 2.390625 -17.40625 C 2.671875 -17.695312 3.019531 -17.84375 3.4375 -17.84375 C 3.851562 -17.84375 4.203125 -17.695312 4.484375 -17.40625 C 4.773438 -17.113281 4.921875 -16.757812 4.921875 -16.34375 C 4.921875 -15.9375 4.773438 -15.597656 4.484375 -15.328125 C 4.203125 -15.054688 3.851562 -14.921875 3.4375 -14.921875 C 3.019531 -14.921875 2.671875 -15.054688 2.390625 -15.328125 C 2.117188 -15.597656 1.984375 -15.9375 1.984375 -16.34375 Z M 1.984375 -16.34375 "/></g></g></g><g fill="#4d433a" fill-opacity="1"><g transform="translate(226.422449, 259.999949)"><g><path d="M 7.828125 5.765625 C 8.453125 5.765625 9.039062 5.707031 9.59375 5.59375 C 10.15625 5.476562 10.644531 5.316406 11.0625 5.109375 C 11.488281 4.898438 11.828125 4.648438 12.078125 4.359375 C 12.328125 4.078125 12.453125 3.769531 12.453125 3.4375 C 12.453125 3.082031 12.28125 2.78125 11.9375 2.53125 C 11.59375 2.289062 11.128906 2.078125 10.546875 1.890625 C 9.972656 1.703125 9.304688 1.539062 8.546875 1.40625 C 7.785156 1.269531 6.988281 1.128906 6.15625 0.984375 L 4.578125 0.71875 C 4.109375 1.082031 3.78125 1.472656 3.59375 1.890625 C 3.40625 2.304688 3.3125 2.664062 3.3125 2.96875 C 3.3125 3.40625 3.429688 3.789062 3.671875 4.125 C 3.910156 4.46875 4.226562 4.765625 4.625 5.015625 C 5.03125 5.265625 5.503906 5.453125 6.046875 5.578125 C 6.597656 5.703125 7.191406 5.765625 7.828125 5.765625 Z M 9.53125 -0.4375 C 10.363281 -0.3125 11.050781 -0.144531 11.59375 0.0625 C 12.144531 0.269531 12.582031 0.507812 12.90625 0.78125 C 13.238281 1.0625 13.46875 1.375 13.59375 1.71875 C 13.71875 2.0625 13.78125 2.425781 13.78125 2.8125 C 13.78125 3.519531 13.585938 4.128906 13.203125 4.640625 C 12.828125 5.160156 12.332031 5.585938 11.71875 5.921875 C 11.113281 6.265625 10.421875 6.519531 9.640625 6.6875 C 8.867188 6.851562 8.082031 6.9375 7.28125 6.9375 C 6.488281 6.9375 5.734375 6.859375 5.015625 6.703125 C 4.296875 6.546875 3.65625 6.3125 3.09375 6 C 2.539062 5.695312 2.097656 5.3125 1.765625 4.84375 C 1.429688 4.382812 1.265625 3.851562 1.265625 3.25 C 1.265625 2.71875 1.429688 2.207031 1.765625 1.71875 C 2.097656 1.226562 2.632812 0.75 3.375 0.28125 C 2.65625 -0.09375 2.101562 -0.59375 1.71875 -1.21875 C 1.332031 -1.851562 1.140625 -2.5 1.140625 -3.15625 C 1.140625 -3.550781 1.234375 -3.9375 1.421875 -4.3125 C 1.609375 -4.695312 1.910156 -5.054688 2.328125 -5.390625 C 1.972656 -5.804688 1.722656 -6.21875 1.578125 -6.625 C 1.429688 -7.039062 1.359375 -7.484375 1.359375 -7.953125 C 1.359375 -8.703125 1.515625 -9.394531 1.828125 -10.03125 C 2.140625 -10.675781 2.5625 -11.234375 3.09375 -11.703125 C 3.632812 -12.179688 4.265625 -12.550781 4.984375 -12.8125 C 5.703125 -13.082031 6.476562 -13.21875 7.3125 -13.21875 C 8.175781 -13.21875 9 -13.066406 9.78125 -12.765625 C 10.570312 -12.472656 11.234375 -12.085938 11.765625 -11.609375 L 14 -11.609375 L 14 -10.5 L 12.578125 -10.5 C 12.722656 -10.1875 12.863281 -9.816406 13 -9.390625 C 13.144531 -8.972656 13.21875 -8.535156 13.21875 -8.078125 C 13.21875 -7.421875 13.0625 -6.796875 12.75 -6.203125 C 12.445312 -5.617188 12.019531 -5.101562 11.46875 -4.65625 C 10.925781 -4.21875 10.285156 -3.867188 9.546875 -3.609375 C 8.816406 -3.347656 8.039062 -3.21875 7.21875 -3.21875 C 6.445312 -3.21875 5.703125 -3.332031 4.984375 -3.5625 C 4.265625 -3.789062 3.625 -4.117188 3.0625 -4.546875 C 2.832031 -4.398438 2.675781 -4.21875 2.59375 -4 C 2.519531 -3.789062 2.484375 -3.570312 2.484375 -3.34375 C 2.484375 -2.6875 2.78125 -2.175781 3.375 -1.8125 C 3.976562 -1.445312 4.742188 -1.191406 5.671875 -1.046875 Z M 6.9375 -12.140625 C 6.4375 -12.140625 5.96875 -12.050781 5.53125 -11.875 C 5.101562 -11.695312 4.722656 -11.453125 4.390625 -11.140625 C 4.066406 -10.835938 3.804688 -10.460938 3.609375 -10.015625 C 3.410156 -9.578125 3.3125 -9.078125 3.3125 -8.515625 C 3.3125 -7.835938 3.453125 -7.226562 3.734375 -6.6875 C 4.015625 -6.15625 4.367188 -5.710938 4.796875 -5.359375 C 5.234375 -5.003906 5.710938 -4.734375 6.234375 -4.546875 C 6.765625 -4.367188 7.265625 -4.28125 7.734375 -4.28125 C 8.253906 -4.28125 8.722656 -4.375 9.140625 -4.5625 C 9.566406 -4.757812 9.9375 -5.03125 10.25 -5.375 C 10.5625 -5.71875 10.796875 -6.113281 10.953125 -6.5625 C 11.117188 -7.019531 11.203125 -7.492188 11.203125 -7.984375 C 11.203125 -8.609375 11.078125 -9.175781 10.828125 -9.6875 C 10.585938 -10.207031 10.265625 -10.644531 9.859375 -11 C 9.460938 -11.363281 9.003906 -11.644531 8.484375 -11.84375 C 7.972656 -12.039062 7.457031 -12.140625 6.9375 -12.140625 Z M 6.9375 -12.140625 "/></g></g></g><g fill="#4d433a" fill-opacity="1"><g transform="translate(241.748101, 259.999949)"><g><path d="M 13.84375 -2.015625 C 13.84375 -1.847656 13.863281 -1.664062 13.90625 -1.46875 C 13.945312 -1.269531 14.015625 -1.085938 14.109375 -0.921875 C 14.203125 -0.765625 14.304688 -0.625 14.421875 -0.5 C 14.535156 -0.375 14.671875 -0.3125 14.828125 -0.3125 L 14.828125 0 L 10.84375 0 L 10.84375 -0.3125 C 10.988281 -0.3125 11.117188 -0.375 11.234375 -0.5 C 11.359375 -0.625 11.46875 -0.765625 11.5625 -0.921875 C 11.65625 -1.085938 11.722656 -1.269531 11.765625 -1.46875 C 11.804688 -1.664062 11.828125 -1.847656 11.828125 -2.015625 L 11.828125 -7.765625 C 11.828125 -8.515625 11.722656 -9.164062 11.515625 -9.71875 C 11.304688 -10.28125 11.023438 -10.742188 10.671875 -11.109375 C 10.328125 -11.484375 9.929688 -11.757812 9.484375 -11.9375 C 9.046875 -12.113281 8.597656 -12.203125 8.140625 -12.203125 C 7.691406 -12.203125 7.242188 -12.113281 6.796875 -11.9375 C 6.347656 -11.757812 5.953125 -11.515625 5.609375 -11.203125 C 5.273438 -10.898438 5 -10.523438 4.78125 -10.078125 C 4.5625 -9.640625 4.453125 -9.148438 4.453125 -8.609375 L 4.453125 -2.015625 C 4.453125 -1.847656 4.472656 -1.664062 4.515625 -1.46875 C 4.554688 -1.269531 4.625 -1.085938 4.71875 -0.921875 C 4.8125 -0.765625 4.914062 -0.625 5.03125 -0.5 C 5.144531 -0.375 5.285156 -0.3125 5.453125 -0.3125 L 5.453125 0 L 1.421875 0 L 1.421875 -0.3125 C 1.566406 -0.3125 1.703125 -0.375 1.828125 -0.5 C 1.953125 -0.625 2.0625 -0.765625 2.15625 -0.921875 C 2.25 -1.085938 2.316406 -1.269531 2.359375 -1.46875 C 2.398438 -1.664062 2.421875 -1.847656 2.421875 -2.015625 L 2.421875 -17.84375 C 2.421875 -18.1875 2.367188 -18.515625 2.265625 -18.828125 C 2.160156 -19.140625 1.859375 -19.304688 1.359375 -19.328125 L 1.359375 -19.640625 L 4.453125 -20.59375 L 4.453125 -11.640625 C 4.597656 -11.804688 4.785156 -11.988281 5.015625 -12.1875 C 5.242188 -12.382812 5.515625 -12.566406 5.828125 -12.734375 C 6.148438 -12.910156 6.523438 -13.054688 6.953125 -13.171875 C 7.378906 -13.285156 7.878906 -13.34375 8.453125 -13.34375 C 9.421875 -13.34375 10.242188 -13.175781 10.921875 -12.84375 C 11.609375 -12.519531 12.164062 -12.09375 12.59375 -11.5625 C 13.03125 -11.039062 13.347656 -10.460938 13.546875 -9.828125 C 13.742188 -9.203125 13.84375 -8.585938 13.84375 -7.984375 Z M 13.84375 -2.015625 "/></g></g></g><g fill="#4d433a" fill-opacity="1"><g transform="translate(258.219307, 259.999949)"><g><path d="M 4.421875 -11.953125 L 4.421875 -4.484375 C 4.421875 -3.953125 4.429688 -3.46875 4.453125 -3.03125 C 4.472656 -2.601562 4.523438 -2.242188 4.609375 -1.953125 C 4.691406 -1.660156 4.816406 -1.4375 4.984375 -1.28125 C 5.148438 -1.125 5.378906 -1.046875 5.671875 -1.046875 C 6.097656 -1.046875 6.503906 -1.253906 6.890625 -1.671875 C 7.273438 -2.085938 7.519531 -2.582031 7.625 -3.15625 L 7.890625 -3.15625 L 7.890625 -0.890625 C 7.710938 -0.890625 7.5625 -0.832031 7.4375 -0.71875 C 7.269531 -0.570312 7.035156 -0.414062 6.734375 -0.25 C 6.429688 -0.0820312 5.984375 0 5.390625 0 C 4.648438 0 4.070312 -0.140625 3.65625 -0.421875 C 3.238281 -0.710938 2.9375 -1.097656 2.75 -1.578125 C 2.570312 -2.054688 2.46875 -2.582031 2.4375 -3.15625 C 2.40625 -3.738281 2.390625 -4.328125 2.390625 -4.921875 L 2.390625 -11.953125 L 0.65625 -11.953125 L 0.65625 -13 L 2.390625 -13 L 2.390625 -15.765625 C 2.390625 -16.117188 2.34375 -16.441406 2.25 -16.734375 C 2.15625 -17.035156 1.847656 -17.195312 1.328125 -17.21875 L 1.328125 -17.53125 L 4.421875 -18.515625 L 4.421875 -13 L 7.890625 -13 L 7.890625 -11.953125 Z M 4.421875 -11.953125 "/></g></g></g><g fill="#4d433a" fill-opacity="1"><g transform="translate(267.04317, 259.999949)"><g><path d="M 11.453125 -3.53125 C 11.453125 -2.988281 11.316406 -2.488281 11.046875 -2.03125 C 10.785156 -1.582031 10.421875 -1.1875 9.953125 -0.84375 C 9.492188 -0.507812 8.953125 -0.242188 8.328125 -0.046875 C 7.710938 0.148438 7.039062 0.25 6.3125 0.25 C 5.425781 0.25 4.703125 0.128906 4.140625 -0.109375 C 3.585938 -0.347656 3.113281 -0.59375 2.71875 -0.84375 C 2.457031 -1 2.210938 -1.132812 1.984375 -1.25 C 1.753906 -1.363281 1.503906 -1.421875 1.234375 -1.421875 L 1.234375 -3.78125 L 1.546875 -3.78125 C 1.609375 -3.488281 1.789062 -3.171875 2.09375 -2.828125 C 2.394531 -2.492188 2.753906 -2.179688 3.171875 -1.890625 C 3.597656 -1.597656 4.0625 -1.351562 4.5625 -1.15625 C 5.070312 -0.957031 5.582031 -0.859375 6.09375 -0.859375 C 6.46875 -0.859375 6.847656 -0.898438 7.234375 -0.984375 C 7.628906 -1.066406 7.988281 -1.203125 8.3125 -1.390625 C 8.632812 -1.578125 8.90625 -1.8125 9.125 -2.09375 C 9.34375 -2.375 9.453125 -2.707031 9.453125 -3.09375 C 9.453125 -3.488281 9.335938 -3.828125 9.109375 -4.109375 C 8.878906 -4.398438 8.585938 -4.65625 8.234375 -4.875 C 7.890625 -5.09375 7.488281 -5.285156 7.03125 -5.453125 C 6.570312 -5.617188 6.117188 -5.773438 5.671875 -5.921875 C 5.128906 -6.078125 4.582031 -6.257812 4.03125 -6.46875 C 3.488281 -6.675781 3 -6.921875 2.5625 -7.203125 C 2.132812 -7.484375 1.785156 -7.820312 1.515625 -8.21875 C 1.242188 -8.625 1.109375 -9.101562 1.109375 -9.65625 C 1.109375 -10.132812 1.195312 -10.585938 1.375 -11.015625 C 1.550781 -11.453125 1.835938 -11.832031 2.234375 -12.15625 C 2.640625 -12.476562 3.160156 -12.734375 3.796875 -12.921875 C 4.441406 -13.117188 5.21875 -13.21875 6.125 -13.21875 C 6.9375 -13.21875 7.5625 -13.148438 8 -13.015625 C 8.445312 -12.890625 8.816406 -12.753906 9.109375 -12.609375 C 9.296875 -12.503906 9.476562 -12.425781 9.65625 -12.375 C 9.84375 -12.320312 10.050781 -12.296875 10.28125 -12.296875 L 10.28125 -10.125 L 10.03125 -10.125 C 9.65625 -10.8125 9.085938 -11.328125 8.328125 -11.671875 C 7.566406 -12.023438 6.785156 -12.203125 5.984375 -12.203125 C 5.460938 -12.203125 5.015625 -12.132812 4.640625 -12 C 4.273438 -11.863281 3.972656 -11.695312 3.734375 -11.5 C 3.492188 -11.300781 3.316406 -11.078125 3.203125 -10.828125 C 3.085938 -10.585938 3.03125 -10.34375 3.03125 -10.09375 C 3.03125 -9.738281 3.128906 -9.4375 3.328125 -9.1875 C 3.523438 -8.945312 3.789062 -8.734375 4.125 -8.546875 C 4.46875 -8.359375 4.851562 -8.179688 5.28125 -8.015625 C 5.707031 -7.847656 6.15625 -7.695312 6.625 -7.5625 C 7.207031 -7.375 7.785156 -7.171875 8.359375 -6.953125 C 8.941406 -6.734375 9.457031 -6.46875 9.90625 -6.15625 C 10.363281 -5.851562 10.734375 -5.488281 11.015625 -5.0625 C 11.304688 -4.632812 11.453125 -4.125 11.453125 -3.53125 Z M 11.453125 -3.53125 "/></g></g></g></svg>