<svg xmlns="http://www.w3.org/2000/svg" xmlns:xlink="http://www.w3.org/1999/xlink" width="500" zoomAndPan="magnify" viewBox="0 0 375 374.999991" height="500" preserveAspectRatio="xMidYMid meet" version="1.0"><defs><clipPath id="cbf1bef0a8"><path d="M 123.492188 131.046875 L 241.992188 131.046875 L 241.992188 249.546875 L 123.492188 249.546875 Z M 123.492188 131.046875 " clip-rule="nonzero"/></clipPath><clipPath id="2b7720b9fd"><path d="M 130.210938 62.535156 L 274.210938 62.535156 L 274.210938 178 L 130.210938 178 Z M 130.210938 62.535156 " clip-rule="nonzero"/></clipPath></defs><g clip-path="url(#cbf1bef0a8)"><path fill="#ebb22f" d="M 182.726562 131.027344 C 215.433594 131.027344 241.941406 157.539062 241.941406 190.242188 C 241.941406 215.199219 226.5 236.550781 204.644531 245.265625 L 203.78125 226.605469 L 203.78125 226.570312 C 203.828125 222.878906 205.386719 219.972656 208.84375 218.511719 L 209.289062 218.332031 L 209.3125 218.324219 L 209.339844 218.3125 L 209.382812 218.296875 C 211.929688 217.265625 214 215.878906 215.414062 213.476562 C 217.175781 210.480469 217.519531 206.492188 217.519531 203.097656 C 217.519531 196.574219 215.59375 188.871094 212.28125 183.226562 C 209.925781 179.21875 206.210938 175.164062 201.195312 175.164062 C 196.179688 175.164062 192.464844 179.21875 190.109375 183.226562 C 186.792969 188.871094 184.871094 196.574219 184.871094 203.097656 C 184.871094 206.496094 185.210938 210.484375 186.976562 213.476562 C 188.40625 215.894531 190.5 217.285156 193.058594 218.316406 C 193.128906 218.34375 193.203125 218.375 193.273438 218.402344 L 193.292969 218.402344 L 193.515625 218.5 C 196.984375 219.957031 198.5625 222.832031 198.609375 226.570312 L 198.609375 226.605469 L 197.636719 247.566406 C 192.871094 248.800781 187.878906 249.460938 182.726562 249.460938 C 177.394531 249.460938 172.226562 248.75 167.3125 247.429688 L 166.402344 227.808594 L 166.402344 227.765625 C 166.449219 223.980469 168.066406 221 171.605469 219.5 L 172.058594 219.324219 L 172.074219 219.320312 L 172.089844 219.3125 L 172.140625 219.292969 C 174.636719 218.28125 176.675781 216.921875 178.0625 214.5625 C 179.804688 211.609375 180.136719 207.648438 180.136719 204.296875 C 180.136719 203.972656 180.125 203.644531 180.105469 203.320312 C 180.09375 203.136719 180.078125 202.949219 180.054688 202.765625 L 180.023438 202.492188 L 180.074219 202.304688 L 177.921875 177.261719 L 175.667969 177.265625 L 175.476562 203.734375 L 171.722656 204.105469 L 169.496094 174.1875 L 167.054688 174.335938 L 166.570312 204.476562 L 165.242188 204.53125 C 164.964844 204.542969 164.6875 204.546875 164.414062 204.546875 C 164.136719 204.546875 163.855469 204.542969 163.578125 204.53125 L 162.257812 204.476562 L 161.578125 174.335938 L 159.136719 174.191406 L 157.101562 204.109375 L 153.347656 203.738281 L 153.15625 177.265625 L 150.894531 177.265625 L 147.984375 202.316406 L 148.03125 202.496094 L 148 202.761719 C 147.980469 202.949219 147.964844 203.136719 147.953125 203.320312 C 147.929688 203.648438 147.917969 203.972656 147.917969 204.296875 C 147.917969 207.648438 148.253906 211.609375 149.992188 214.5625 C 151.394531 216.941406 153.453125 218.300781 155.96875 219.3125 C 156.027344 219.335938 156.085938 219.359375 156.140625 219.382812 L 156.164062 219.382812 L 156.425781 219.492188 C 159.972656 220.988281 161.601562 223.9375 161.652344 227.765625 L 161.652344 227.808594 L 160.84375 245.292969 C 138.964844 236.59375 123.496094 215.226562 123.496094 190.246094 C 123.511719 157.535156 150.019531 131.027344 182.726562 131.027344 " fill-opacity="1" fill-rule="evenodd"/></g><path fill="#f6f5f4" d="M 203.078125 90.460938 C 204.132812 90.460938 204.132812 88.808594 203.078125 88.808594 C 202.023438 88.808594 202.023438 90.460938 203.078125 90.460938 Z M 203.078125 90.460938 " fill-opacity="1" fill-rule="nonzero"/><g clip-path="url(#2b7720b9fd)"><path fill="#4d433a" d="M 134.886719 84.765625 C 135.765625 82.835938 136.785156 80.867188 138.121094 78.933594 C 139.417969 77 140.964844 75.03125 143.003906 73.132812 C 144.023438 72.183594 145.183594 71.234375 146.484375 70.355469 C 147.046875 69.96875 147.539062 69.652344 148.101562 69.300781 C 148.628906 68.949219 149.191406 68.632812 149.753906 68.316406 C 152.003906 67.015625 154.464844 65.820312 157.207031 64.835938 C 159.914062 63.851562 162.898438 63.113281 165.921875 62.796875 C 166.695312 62.726562 167.433594 62.65625 168.207031 62.621094 C 168.980469 62.585938 169.71875 62.585938 170.457031 62.621094 C 171.96875 62.65625 173.410156 62.832031 174.816406 63.078125 C 177.628906 63.570312 180.160156 64.378906 182.445312 65.398438 C 184.695312 66.417969 186.699219 67.578125 188.488281 68.84375 C 189.367188 69.476562 190.246094 70.144531 191.054688 70.8125 C 191.863281 71.480469 192.636719 72.183594 193.339844 72.886719 C 194.078125 73.589844 194.78125 74.292969 195.449219 75.03125 C 195.800781 75.382812 196.117188 75.769531 196.433594 76.121094 L 196.925781 76.683594 L 197.347656 77.210938 C 197.910156 77.878906 198.4375 78.511719 199 79.179688 L 199.84375 80.164062 L 200.722656 81.148438 C 205.046875 85.925781 209.722656 90.636719 214.535156 95.3125 C 215.273438 95.136719 216.011719 94.996094 216.785156 94.890625 C 217.769531 94.714844 218.753906 94.609375 219.773438 94.503906 C 220.757812 94.398438 221.777344 94.328125 222.761719 94.292969 C 223.253906 94.257812 223.78125 94.257812 224.273438 94.257812 C 224.765625 94.257812 225.292969 94.257812 225.785156 94.257812 C 229.792969 94.328125 233.871094 94.925781 237.628906 96.226562 C 238.578125 96.542969 239.492188 96.929688 240.40625 97.351562 C 241.320312 97.773438 242.164062 98.265625 243.007812 98.757812 C 243.851562 99.285156 244.625 99.847656 245.363281 100.445312 C 246.101562 101.042969 246.804688 101.710938 247.4375 102.414062 C 247.753906 102.765625 248.070312 103.117188 248.351562 103.46875 C 248.632812 103.820312 248.914062 104.207031 249.195312 104.59375 C 249.722656 105.332031 250.179688 106.140625 250.601562 106.914062 C 250.917969 107.507812 251.199219 108.140625 251.445312 108.773438 C 252.253906 108.878906 253.027344 109.019531 253.765625 109.195312 C 255.558594 109.582031 257.316406 110.074219 259 110.742188 C 262.375 112.042969 265.433594 113.90625 267.859375 116.296875 C 269.089844 117.492188 270.109375 118.792969 270.988281 120.199219 C 271.410156 120.902344 271.796875 121.605469 272.148438 122.308594 C 272.5 123.046875 272.78125 123.785156 273.027344 124.523438 C 273.519531 126 273.871094 127.511719 274.046875 129.023438 C 274.082031 129.410156 274.117188 129.761719 274.152344 130.148438 C 274.1875 130.535156 274.1875 130.886719 274.222656 131.269531 C 274.222656 131.65625 274.257812 132.007812 274.257812 132.394531 L 274.257812 133.519531 C 274.1875 135.101562 273.941406 136.753906 273.449219 138.511719 C 272.921875 140.269531 272.113281 142.097656 270.847656 143.925781 C 270.214844 144.839844 269.476562 145.753906 268.597656 146.597656 C 267.71875 147.441406 266.769531 148.25 265.75 148.988281 C 264.730469 149.726562 263.640625 150.359375 262.515625 150.886719 C 261.390625 151.449219 260.265625 151.871094 259.140625 152.257812 C 256.894531 153.03125 254.714844 153.488281 252.605469 153.769531 C 250.53125 154.050781 248.527344 154.15625 246.59375 154.191406 C 245.714844 154.191406 244.835938 154.15625 243.992188 154.121094 C 243.535156 156.121094 243.078125 158.089844 242.621094 160.09375 C 242.128906 162.203125 241.601562 164.3125 241.074219 166.421875 C 240.546875 168.53125 240.019531 170.640625 239.457031 172.75 L 239.175781 173.839844 C 238.859375 175.035156 237.980469 176.160156 236.574219 176.933594 C 233.941406 178.445312 230.53125 178.09375 228.949219 176.160156 C 228.949219 176.160156 228.878906 176.089844 228.84375 176.054688 L 228.738281 175.949219 L 228.492188 175.738281 L 228 175.28125 C 227.683594 174.964844 227.332031 174.683594 226.980469 174.367188 C 226.277344 173.769531 225.574219 173.171875 224.871094 172.574219 C 223.429688 171.378906 221.953125 170.183594 220.476562 169.058594 C 217.488281 166.738281 214.324219 164.523438 211.089844 162.378906 C 207.824219 160.234375 204.449219 158.195312 200.933594 156.261719 C 197.417969 154.332031 193.726562 152.539062 189.894531 150.816406 C 191.019531 150.921875 192.144531 151.027344 193.269531 151.203125 C 193.832031 151.273438 194.394531 151.378906 194.957031 151.449219 L 196.609375 151.730469 L 197.453125 151.871094 L 198.261719 152.046875 L 199.914062 152.398438 C 200.441406 152.503906 201.003906 152.644531 201.53125 152.785156 C 202.058594 152.925781 202.621094 153.03125 203.148438 153.171875 C 207.4375 154.261719 211.617188 155.628906 215.625 157.210938 C 219.632812 158.792969 223.535156 160.585938 227.261719 162.554688 C 227.71875 162.800781 228.140625 163.046875 228.597656 163.257812 C 228.667969 162.625 228.738281 162.027344 228.84375 161.394531 C 228.703125 161.289062 228.5625 161.148438 228.421875 161.042969 C 228 160.691406 227.542969 160.339844 227.085938 159.988281 C 225.292969 158.617188 223.464844 157.28125 221.53125 156.015625 C 219.597656 154.753906 217.59375 153.558594 215.484375 152.433594 C 213.375 151.34375 211.160156 150.359375 208.738281 149.585938 C 211.40625 149.691406 214.078125 150.042969 216.714844 150.535156 C 219.316406 151.027344 221.882812 151.660156 224.414062 152.363281 C 226.242188 152.890625 228.035156 153.453125 229.792969 154.015625 C 229.828125 153.839844 229.828125 153.628906 229.863281 153.453125 C 229.898438 153.101562 229.96875 152.75 230.003906 152.398438 C 229.265625 151.730469 228.527344 151.027344 227.753906 150.394531 C 226.664062 149.515625 225.539062 148.601562 224.308594 147.828125 C 223.078125 147.019531 221.8125 146.28125 220.335938 145.683594 C 222.058594 145.613281 223.816406 145.753906 225.539062 145.929688 C 227.261719 146.140625 228.949219 146.421875 230.636719 146.773438 C 230.707031 146.773438 230.742188 146.808594 230.8125 146.808594 C 230.847656 146.597656 230.917969 146.351562 230.988281 146.140625 C 232.148438 142.976562 236.1875 140.867188 240.019531 141.429688 L 240.722656 141.535156 L 241.496094 141.640625 C 241.8125 141.675781 242.128906 141.710938 242.445312 141.746094 C 243.078125 141.816406 243.710938 141.886719 244.378906 141.921875 C 245.679688 142.027344 246.945312 142.027344 248.210938 141.992188 C 250.671875 141.957031 253.027344 141.570312 254.609375 141.007812 C 255.417969 140.726562 256.015625 140.410156 256.507812 140.09375 C 256.753906 139.917969 256.964844 139.742188 257.175781 139.566406 C 257.386719 139.355469 257.5625 139.144531 257.738281 138.898438 C 258.125 138.40625 258.441406 137.738281 258.722656 136.964844 C 258.96875 136.191406 259.175781 135.277344 259.246094 134.328125 L 259.28125 134.152344 L 259.28125 133.941406 L 259.316406 133.554688 C 259.351562 133.308594 259.351562 133.027344 259.351562 132.78125 L 259.351562 132.007812 C 259.351562 131.761719 259.351562 131.515625 259.316406 131.269531 C 259.246094 130.289062 259.140625 129.339844 258.898438 128.425781 C 258.6875 127.511719 258.371094 126.632812 257.984375 125.824219 C 257.597656 125.015625 257.105469 124.242188 256.507812 123.503906 C 255.910156 122.765625 255.242188 122.097656 254.46875 121.464844 C 253.695312 120.832031 252.816406 120.269531 251.867188 119.742188 C 250.917969 119.214844 249.863281 118.792969 248.773438 118.40625 C 248.210938 118.230469 247.648438 118.054688 247.085938 117.878906 C 246.804688 117.808594 246.523438 117.738281 246.242188 117.667969 L 245.855469 117.597656 L 245.679688 117.5625 L 245.574219 117.5625 L 245.609375 117.5625 L 241.039062 114.082031 C 240.96875 112.816406 240.828125 111.550781 240.511719 110.355469 C 240.195312 109.160156 239.738281 108 239.140625 106.910156 C 237.910156 104.734375 236.046875 102.765625 233.554688 101.148438 C 232.324219 100.339844 230.917969 99.636719 229.441406 99.003906 C 228.703125 98.6875 227.929688 98.40625 227.121094 98.125 C 226.3125 97.84375 225.503906 97.597656 224.660156 97.351562 C 224.238281 97.246094 223.816406 97.140625 223.394531 97.035156 C 222.972656 96.929688 222.550781 96.824219 222.09375 96.71875 C 221.214844 96.507812 220.335938 96.367188 219.421875 96.191406 C 217.910156 95.945312 216.398438 95.699219 214.816406 95.558594 C 215.097656 95.839844 215.378906 96.121094 215.660156 96.367188 L 219.597656 100.128906 L 223.570312 103.925781 C 226.242188 106.457031 228.878906 108.984375 231.550781 111.585938 C 229.582031 110.917969 227.71875 110.144531 225.855469 109.335938 C 224.941406 108.949219 223.992188 108.527344 223.078125 108.105469 L 220.371094 106.84375 C 216.75 105.121094 213.269531 103.257812 209.863281 101.324219 C 206.453125 99.355469 203.148438 97.316406 199.949219 95.101562 C 196.75 92.921875 193.65625 90.601562 190.703125 88.140625 C 189.964844 87.507812 189.226562 86.910156 188.523438 86.277344 C 187.785156 85.644531 187.082031 85.011719 186.382812 84.34375 L 185.398438 83.464844 C 185.082031 83.183594 184.765625 82.90625 184.449219 82.625 C 183.816406 82.0625 183.183594 81.535156 182.515625 81.042969 C 181.214844 80.023438 179.878906 79.074219 178.507812 78.230469 C 177.136719 77.421875 175.730469 76.683594 174.324219 76.15625 C 172.917969 75.59375 171.546875 75.242188 170.175781 75.03125 C 168.839844 74.820312 167.503906 74.820312 166.167969 74.960938 C 164.832031 75.101562 163.460938 75.453125 162.023438 75.945312 C 161.285156 76.191406 160.582031 76.507812 159.808594 76.859375 C 159.070312 77.210938 158.296875 77.597656 157.558594 77.984375 C 157.171875 78.195312 156.785156 78.40625 156.433594 78.652344 C 156.046875 78.863281 155.660156 79.109375 155.308594 79.355469 C 154.851562 79.636719 154.359375 80.023438 153.832031 80.445312 C 152.8125 81.324219 151.792969 82.484375 150.878906 83.746094 C 149.964844 85.011719 149.085938 86.382812 148.3125 87.824219 C 147.539062 89.265625 146.871094 90.777344 146.273438 92.289062 C 145.675781 93.835938 145.148438 95.382812 144.726562 96.964844 C 144.269531 98.546875 143.917969 100.164062 143.636719 101.746094 C 143.039062 104.980469 142.792969 108.210938 142.792969 111.445312 C 142.828125 116.824219 143.707031 122.167969 145.640625 127.265625 C 145.675781 127.265625 145.710938 127.230469 145.710938 127.230469 C 146.800781 126.878906 147.890625 126.527344 148.980469 126.175781 C 148.839844 125.226562 148.769531 124.3125 148.699219 123.363281 C 148.558594 121.464844 148.523438 119.566406 148.558594 117.667969 C 148.59375 115.769531 148.699219 113.871094 148.910156 111.972656 C 149.121094 110.074219 149.402344 108.210938 149.753906 106.316406 C 150.105469 104.453125 150.5625 102.554688 151.054688 100.691406 L 151.441406 99.285156 C 151.582031 98.828125 151.722656 98.371094 151.898438 97.914062 C 152.179688 97 152.53125 96.085938 152.847656 95.171875 C 154.21875 91.515625 155.90625 87.929688 157.910156 84.449219 C 156.714844 88.070312 155.871094 91.726562 155.378906 95.347656 C 155.273438 96.261719 155.132812 97.140625 155.0625 98.054688 C 155.027344 98.511719 154.992188 98.96875 154.957031 99.390625 L 154.886719 100.726562 C 154.816406 102.519531 154.78125 104.3125 154.886719 106.070312 C 154.957031 107.824219 155.097656 109.582031 155.34375 111.304688 C 155.589844 113.027344 155.871094 114.75 156.257812 116.4375 C 156.644531 118.125 157.101562 119.777344 157.628906 121.394531 C 157.910156 122.203125 158.191406 123.011719 158.472656 123.785156 C 158.472656 123.820312 158.507812 123.855469 158.507812 123.890625 C 159.84375 123.644531 161.214844 123.46875 162.550781 123.292969 C 162.550781 123.152344 162.585938 122.976562 162.585938 122.800781 C 162.691406 121.640625 162.832031 120.480469 163.039062 119.355469 C 163.425781 117.070312 163.917969 114.820312 164.585938 112.605469 L 164.832031 111.761719 L 165.113281 110.917969 C 165.289062 110.355469 165.464844 109.828125 165.675781 109.265625 C 166.097656 108.175781 166.484375 107.085938 166.976562 106 C 167.890625 103.855469 169.015625 101.746094 170.175781 99.671875 C 169.824219 101.851562 169.542969 103.996094 169.507812 106.140625 C 169.4375 107.191406 169.472656 108.246094 169.507812 109.300781 C 169.507812 109.828125 169.578125 110.355469 169.578125 110.882812 L 169.613281 111.65625 L 169.683594 112.429688 C 169.894531 114.503906 170.246094 116.507812 170.703125 118.476562 C 170.949219 119.460938 171.230469 120.445312 171.511719 121.394531 C 171.652344 121.78125 171.792969 122.203125 171.933594 122.589844 L 175.027344 122.589844 C 175.0625 122.273438 175.097656 121.992188 175.132812 121.675781 C 175.308594 120.128906 175.554688 118.617188 175.941406 117.140625 L 176.222656 116.015625 C 176.328125 115.628906 176.433594 115.277344 176.539062 114.890625 C 176.785156 114.152344 176.996094 113.414062 177.277344 112.710938 C 177.769531 111.269531 178.4375 109.828125 179.105469 108.457031 C 179.28125 109.863281 179.457031 111.234375 179.808594 112.570312 C 179.949219 113.238281 180.160156 113.90625 180.371094 114.539062 C 180.476562 114.855469 180.582031 115.171875 180.6875 115.523438 L 180.863281 116.015625 L 181.039062 116.472656 C 181.53125 117.738281 182.09375 118.96875 182.726562 120.128906 C 183.042969 120.726562 183.394531 121.289062 183.746094 121.851562 C 183.921875 122.132812 184.097656 122.414062 184.308594 122.660156 C 184.414062 122.800781 184.484375 122.90625 184.589844 123.046875 C 184.625 123.082031 184.660156 123.152344 184.695312 123.1875 C 186.101562 123.328125 187.46875 123.503906 188.804688 123.714844 C 192.144531 124.207031 195.414062 124.839844 198.613281 125.613281 C 201.8125 126.351562 204.90625 127.265625 207.929688 128.285156 C 209.441406 128.777344 210.914062 129.304688 212.390625 129.902344 C 213.867188 130.464844 215.273438 131.058594 216.714844 131.691406 C 219.527344 132.957031 222.269531 134.292969 224.800781 135.875 C 218.367188 134.820312 211.96875 133.976562 205.574219 133.34375 C 202.375 133.027344 199.210938 132.78125 196.011719 132.605469 C 194.359375 132.5 192.742188 132.464844 191.125 132.394531 C 189.578125 132.359375 188.066406 132.324219 186.523438 132.324219 C 183.359375 132.324219 180.230469 132.429688 177.101562 132.605469 C 176.820312 132.640625 176.503906 132.640625 176.222656 132.675781 C 175.730469 132.710938 175.238281 132.746094 174.78125 132.78125 L 174.183594 132.816406 L 173.621094 132.886719 L 171.300781 133.097656 C 170.914062 133.132812 170.527344 133.203125 170.140625 133.238281 C 169.367188 133.34375 168.628906 133.414062 167.855469 133.554688 L 165.605469 133.90625 L 163.355469 134.328125 L 162.234375 134.539062 C 161.847656 134.609375 161.496094 134.714844 161.144531 134.785156 C 160.40625 134.960938 159.667969 135.136719 158.964844 135.3125 L 156.820312 135.910156 L 156.292969 136.050781 C 156.117188 136.085938 155.941406 136.15625 155.765625 136.226562 L 154.710938 136.578125 C 154.535156 136.613281 154.359375 136.683594 154.183594 136.71875 C 153.832031 137.703125 153.445312 138.722656 153.058594 139.707031 C 153.058594 139.742188 153.023438 139.777344 153.023438 139.8125 L 151.933594 142.695312 L 151.863281 142.835938 L 150.667969 145.859375 C 150.140625 147.195312 149.613281 148.53125 149.085938 149.867188 C 149.121094 149.867188 149.15625 149.867188 149.226562 149.867188 C 151.054688 149.796875 152.847656 149.761719 154.640625 149.761719 C 155.554688 149.761719 156.433594 149.761719 157.347656 149.796875 C 158.261719 149.796875 159.140625 149.867188 160.019531 149.867188 C 161.8125 149.9375 163.566406 150.042969 165.359375 150.183594 C 166.238281 150.253906 167.117188 150.324219 167.996094 150.429688 L 169.332031 150.570312 L 170.632812 150.710938 C 172.390625 150.921875 174.113281 151.167969 175.835938 151.449219 L 178.402344 151.90625 C 179.246094 152.046875 180.089844 152.257812 180.933594 152.433594 C 184.308594 153.171875 187.609375 154.015625 190.773438 155.101562 C 191.160156 155.242188 191.582031 155.347656 191.96875 155.488281 L 194.289062 156.332031 C 194.675781 156.472656 195.0625 156.613281 195.449219 156.789062 C 196.222656 157.105469 196.960938 157.421875 197.699219 157.738281 C 198.085938 157.878906 198.4375 158.054688 198.824219 158.230469 L 199.914062 158.757812 C 200.652344 159.109375 201.355469 159.425781 202.058594 159.847656 L 204.132812 160.972656 C 204.800781 161.359375 205.46875 161.78125 206.136719 162.203125 L 207.121094 162.835938 L 208.070312 163.503906 C 208.703125 163.925781 209.300781 164.382812 209.933594 164.839844 C 210.53125 165.296875 211.125 165.789062 211.6875 166.246094 L 212.566406 166.949219 C 212.847656 167.195312 213.09375 167.441406 213.375 167.6875 C 213.902344 168.179688 214.429688 168.707031 214.957031 169.199219 C 214.183594 168.917969 213.445312 168.636719 212.707031 168.355469 C 212.320312 168.214844 211.96875 168.074219 211.582031 167.933594 L 210.460938 167.546875 C 209.6875 167.300781 208.949219 167.019531 208.210938 166.773438 C 207.4375 166.527344 206.664062 166.316406 205.925781 166.070312 L 204.800781 165.71875 L 203.640625 165.402344 L 201.355469 164.769531 C 199.808594 164.417969 198.296875 163.996094 196.714844 163.679688 L 195.554688 163.433594 C 195.167969 163.363281 194.78125 163.257812 194.394531 163.1875 C 193.621094 163.046875 192.8125 162.90625 192.039062 162.765625 C 191.265625 162.625 190.457031 162.519531 189.683594 162.378906 L 188.523438 162.203125 C 188.136719 162.132812 187.714844 162.097656 187.328125 162.0625 C 184.167969 161.605469 180.96875 161.324219 177.769531 161.078125 C 174.570312 160.832031 171.335938 160.726562 168.101562 160.691406 L 165.675781 160.691406 C 164.867188 160.691406 164.058594 160.691406 163.25 160.726562 C 162.445312 160.761719 161.636719 160.761719 160.828125 160.796875 C 160.019531 160.832031 159.210938 160.832031 158.402344 160.867188 C 156.785156 160.9375 155.167969 161.007812 153.515625 161.113281 C 152.707031 161.183594 151.898438 161.21875 151.089844 161.289062 L 149.859375 161.394531 L 148.664062 161.5 C 147.046875 161.640625 145.429688 161.816406 143.847656 162.027344 C 143.039062 162.132812 142.265625 162.238281 141.492188 162.34375 C 141.105469 162.378906 140.71875 162.449219 140.332031 162.519531 L 139.769531 162.589844 L 139.523438 162.625 L 139.3125 162.660156 C 138.367188 162.835938 137.382812 162.871094 136.398438 162.730469 C 132.460938 162.167969 130.210938 159.074219 131.40625 155.804688 L 131.476562 155.59375 C 132.214844 153.59375 132.988281 151.554688 133.761719 149.550781 C 134.535156 147.546875 135.308594 145.542969 136.117188 143.503906 L 137.3125 140.480469 L 138.542969 137.457031 C 139.136719 135.945312 139.769531 134.46875 140.402344 132.957031 C 138.085938 130.148438 136.222656 127.019531 134.746094 123.785156 C 133.234375 120.410156 132.144531 116.859375 131.511719 113.238281 C 130.84375 109.617188 130.632812 105.859375 130.84375 102.097656 C 130.949219 100.199219 131.160156 98.300781 131.476562 96.367188 C 131.792969 94.46875 132.25 92.535156 132.8125 90.601562 C 133.339844 88.667969 134.007812 86.734375 134.886719 84.765625 Z M 134.886719 84.765625 " fill-opacity="1" fill-rule="nonzero"/></g></svg>